<svg xmlns="http://www.w3.org/2000/svg" xmlns:xlink="http://www.w3.org/1999/xlink" contentStyleType="text/css" data-diagram-type="SEQUENCE" height="641px" preserveAspectRatio="none" style="width:1033px;height:641px;" version="1.1" viewBox="0 0 1033 641" width="1033px" zoomAndPan="magnify"><defs/><g><rect fill="#FFFFFF" fill-opacity="0.00000" height="148.4688" style="stroke:#000000;stroke-width:1.5;" width="781.5913" x="245.0293" y="207.9609"/><rect fill="#FFFFFF" fill-opacity="0.00000" height="75.3984" style="stroke:#000000;stroke-width:1.5;" width="357.3867" x="519.1821" y="441.6953"/><g><title>Document</title><rect fill="#FFFFFF" fill-opacity="0.00000" height="495.9297" width="8" x="44.2646" y="67.2969"/><line style="stroke:#181818;stroke-width:0.5;stroke-dasharray:5.0,5.0;" x1="48" x2="48" y1="67.2969" y2="563.2266"/></g><g><title>Text Extractor</title><rect fill="#FFFFFF" fill-opacity="0.00000" height="495.9297" width="8" x="184.103" y="67.2969"/><line style="stroke:#181818;stroke-width:0.5;stroke-dasharray:5.0,5.0;" x1="187.1768" x2="187.1768" y1="67.2969" y2="563.2266"/></g><g><title>PII Detector (Agent 1)</title><rect fill="#FFFFFF" fill-opacity="0.00000" height="495.9297" width="8" x="334.1919" y="67.2969"/><line style="stroke:#181818;stroke-width:0.5;stroke-dasharray:5.0,5.0;" x1="338.0293" x2="338.0293" y1="67.2969" y2="563.2266"/></g><g><title>Anonymizer</title><rect fill="#FFFFFF" fill-opacity="0.00000" height="495.9297" width="8" x="573.8916" y="67.2969"/><line style="stroke:#181818;stroke-width:0.5;stroke-dasharray:5.0,5.0;" x1="577.1821" x2="577.1821" y1="67.2969" y2="563.2266"/></g><g><title>PII Detector (Optional Agent 2)</title><rect fill="#FFFFFF" fill-opacity="0.00000" height="495.9297" width="8" x="747.585" y="67.2969"/><line style="stroke:#181818;stroke-width:0.5;stroke-dasharray:5.0,5.0;" x1="750.6011" x2="750.6011" y1="67.2969" y2="563.2266"/></g><g><title>Secure Log</title><rect fill="#FFFFFF" fill-opacity="0.00000" height="495.9297" width="8" x="914.6396" y="67.2969"/><line style="stroke:#181818;stroke-width:0.5;stroke-dasharray:5.0,5.0;" x1="918.5688" x2="918.5688" y1="67.2969" y2="563.2266"/></g><g><title>User</title><rect fill="#FFFFFF" fill-opacity="0.00000" height="495.9297" width="8" x="989.6655" y="67.2969"/><line style="stroke:#181818;stroke-width:0.5;stroke-dasharray:5.0,5.0;" x1="992.7104" x2="992.7104" y1="67.2969" y2="563.2266"/></g><g><rect fill="#E2E2F0" height="30.2969" rx="2.5" ry="2.5" style="stroke:#181818;stroke-width:0.5;" width="86.5293" x="5" y="36"/><text fill="#000000" font-family="Arial" font-size="14" lengthAdjust="spacing" textLength="72.5293" x="12" y="55.9951">Document</text></g><g><rect fill="#E2E2F0" height="30.2969" rx="2.5" ry="2.5" style="stroke:#181818;stroke-width:0.5;" width="86.5293" x="5" y="562.2266"/><text fill="#000000" font-family="Arial" font-size="14" lengthAdjust="spacing" textLength="72.5293" x="12" y="582.2217">Document</text></g><g><rect fill="#E2E2F0" height="30.2969" rx="2.5" ry="2.5" style="stroke:#181818;stroke-width:0.5;" width="113.8525" x="131.1768" y="36"/><text fill="#000000" font-family="Arial" font-size="14" lengthAdjust="spacing" textLength="99.8525" x="138.1768" y="55.9951">Text Extractor</text></g><g><rect fill="#E2E2F0" height="30.2969" rx="2.5" ry="2.5" style="stroke:#181818;stroke-width:0.5;" width="113.8525" x="131.1768" y="562.2266"/><text fill="#000000" font-family="Arial" font-size="14" lengthAdjust="spacing" textLength="99.8525" x="138.1768" y="582.2217">Text Extractor</text></g><g><rect fill="#E2E2F0" height="30.2969" rx="2.5" ry="2.5" style="stroke:#181818;stroke-width:0.5;" width="166.3252" x="255.0293" y="36"/><text fill="#000000" font-family="Arial" font-size="14" lengthAdjust="spacing" textLength="152.3252" x="262.0293" y="55.9951">PII Detector (Agent 1)</text></g><g><rect fill="#E2E2F0" height="30.2969" rx="2.5" ry="2.5" style="stroke:#181818;stroke-width:0.5;" width="166.3252" x="255.0293" y="562.2266"/><text fill="#000000" font-family="Arial" font-size="14" lengthAdjust="spacing" textLength="152.3252" x="262.0293" y="582.2217">PII Detector (Agent 1)</text></g><g><rect fill="#E2E2F0" height="30.2969" rx="2.5" ry="2.5" style="stroke:#181818;stroke-width:0.5;" width="97.4189" x="529.1821" y="36"/><text fill="#000000" font-family="Arial" font-size="14" lengthAdjust="spacing" textLength="83.4189" x="536.1821" y="55.9951">Anonymizer</text></g><g><rect fill="#E2E2F0" height="30.2969" rx="2.5" ry="2.5" style="stroke:#181818;stroke-width:0.5;" width="97.4189" x="529.1821" y="562.2266"/><text fill="#000000" font-family="Arial" font-size="14" lengthAdjust="spacing" textLength="83.4189" x="536.1821" y="582.2217">Anonymizer</text></g><g><rect fill="#E2E2F0" height="30.2969" rx="2.5" ry="2.5" style="stroke:#181818;stroke-width:0.5;" width="229.9678" x="636.6011" y="36"/><text fill="#000000" font-family="Arial" font-size="14" lengthAdjust="spacing" textLength="215.9678" x="643.6011" y="55.9951">PII Detector (Optional Agent 2)</text></g><g><rect fill="#E2E2F0" height="30.2969" rx="2.5" ry="2.5" style="stroke:#181818;stroke-width:0.5;" width="229.9678" x="636.6011" y="562.2266"/><text fill="#000000" font-family="Arial" font-size="14" lengthAdjust="spacing" textLength="215.9678" x="643.6011" y="582.2217">PII Detector (Optional Agent 2)</text></g><g><text fill="#000000" font-family="Arial" font-size="14" lengthAdjust="spacing" textLength="78.1416" x="876.5688" y="63.9951">Secure Log</text><path d="M900.6396,15 C900.6396,5 918.6396,5 918.6396,5 C918.6396,5 936.6396,5 936.6396,15 L936.6396,41 C936.6396,51 918.6396,51 918.6396,51 C918.6396,51 900.6396,51 900.6396,41 L900.6396,15 " fill="#E2E2F0" style="stroke:#181818;stroke-width:1.5;"/><path d="M900.6396,15 C900.6396,25 918.6396,25 918.6396,25 C918.6396,25 936.6396,25 936.6396,15 " fill="#FFFFFF" fill-opacity="0.00000" style="stroke:#181818;stroke-width:1.5;"/></g><g><text fill="#000000" font-family="Arial" font-size="14" lengthAdjust="spacing" textLength="78.1416" x="876.5688" y="575.2217">Secure Log</text><path d="M900.6396,588.5234 C900.6396,578.5234 918.6396,578.5234 918.6396,578.5234 C918.6396,578.5234 936.6396,578.5234 936.6396,588.5234 L936.6396,614.5234 C936.6396,624.5234 918.6396,624.5234 918.6396,624.5234 C918.6396,624.5234 900.6396,624.5234 900.6396,614.5234 L900.6396,588.5234 " fill="#E2E2F0" style="stroke:#181818;stroke-width:1.5;"/><path d="M900.6396,588.5234 C900.6396,598.5234 918.6396,598.5234 918.6396,598.5234 C918.6396,598.5234 936.6396,598.5234 936.6396,588.5234 " fill="#FFFFFF" fill-opacity="0.00000" style="stroke:#181818;stroke-width:1.5;"/></g><g><rect fill="#E2E2F0" height="30.2969" rx="2.5" ry="2.5" style="stroke:#181818;stroke-width:0.5;" width="45.9102" x="970.7104" y="36"/><text fill="#000000" font-family="Arial" font-size="14" lengthAdjust="spacing" textLength="31.9102" x="977.7104" y="55.9951">User</text></g><g><rect fill="#E2E2F0" height="30.2969" rx="2.5" ry="2.5" style="stroke:#181818;stroke-width:0.5;" width="45.9102" x="970.7104" y="562.2266"/><text fill="#000000" font-family="Arial" font-size="14" lengthAdjust="spacing" textLength="31.9102" x="977.7104" y="582.2217">User</text></g><g><polygon fill="#2C3E50" points="176.103,94.4297,186.103,98.4297,176.103,102.4297,180.103,98.4297" style="stroke:#2C3E50;stroke-width:1;"/><line style="stroke:#2C3E50;stroke-width:1;" x1="48.2646" x2="182.103" y1="98.4297" y2="98.4297"/><text fill="#000000" font-family="Arial" font-size="13" lengthAdjust="spacing" textLength="115.8384" x="55.2646" y="93.3638">Submit document</text></g><g><polygon fill="#2C3E50" points="326.1919,123.5625,336.1919,127.5625,326.1919,131.5625,330.1919,127.5625" style="stroke:#2C3E50;stroke-width:1;"/><line style="stroke:#2C3E50;stroke-width:1;" x1="188.103" x2="332.1919" y1="127.5625" y2="127.5625"/><text fill="#000000" font-family="Arial" font-size="13" lengthAdjust="spacing" textLength="76.5781" x="195.103" y="122.4966">Extract text</text></g><path d="M343,140.5625 L343,195.5625 L548,195.5625 L548,150.5625 L538,140.5625 L343,140.5625 " fill="#FEFFDD" style="stroke:#181818;stroke-width:0.5;"/><path d="M538,140.5625 L538,150.5625 L548,150.5625 L538,140.5625 " fill="#FEFFDD" style="stroke:#181818;stroke-width:0.5;"/><text fill="#000000" font-family="Arial" font-size="13" lengthAdjust="spacing" textLength="184.2598" x="349" y="157.6294">- Detect GDPR-sensitive info</text><text fill="#000000" font-family="Arial" font-size="13" lengthAdjust="spacing" textLength="181.397" x="349" y="172.7622">- Assign confidence weights</text><text fill="#000000" font-family="Arial" font-size="13" lengthAdjust="spacing" textLength="138.5313" x="349" y="187.895">- Categorize PII types</text><path d="M245.0293,207.9609 L309.4722,207.9609 L309.4722,215.0938 L299.4722,225.0938 L245.0293,225.0938 L245.0293,207.9609 " fill="#EEEEEE" style="stroke:#000000;stroke-width:1.5;"/><rect fill="#FFFFFF" fill-opacity="0.00000" height="148.4688" style="stroke:#000000;stroke-width:1.5;" width="781.5913" x="245.0293" y="207.9609"/><text fill="#000000" font-family="Arial" font-size="13" font-weight="bold" lengthAdjust="spacing" textLength="19.4429" x="260.0293" y="221.0278">alt</text><text fill="#000000" font-family="Arial" font-size="11" font-weight="bold" lengthAdjust="spacing" textLength="92.9468" x="324.4722" y="220.1714">[Manual Mode]</text><g><polygon fill="#2C3E50" points="565.8916,242.2266,575.8916,246.2266,565.8916,250.2266,569.8916,246.2266" style="stroke:#2C3E50;stroke-width:1;"/><line style="stroke:#2C3E50;stroke-width:1;" x1="338.1919" x2="571.8916" y1="246.2266" y2="246.2266"/><text fill="#000000" font-family="Arial" font-size="13" lengthAdjust="spacing" textLength="159.8276" x="345.1919" y="241.1606">Suggest anonymizations</text></g><g><polygon fill="#2C3E50" points="981.6655,271.3594,991.6655,275.3594,981.6655,279.3594,985.6655,275.3594" style="stroke:#2C3E50;stroke-width:1;"/><line style="stroke:#2C3E50;stroke-width:1;" x1="577.8916" x2="987.6655" y1="275.3594" y2="275.3594"/><text fill="#000000" font-family="Arial" font-size="13" lengthAdjust="spacing" textLength="105.7139" x="584.8916" y="270.2935">Review changes</text></g><g><polygon fill="#2C3E50" points="588.8916,300.4922,578.8916,304.4922,588.8916,308.4922,584.8916,304.4922" style="stroke:#2C3E50;stroke-width:1;"/><line style="stroke:#2C3E50;stroke-width:1;" x1="582.8916" x2="992.6655" y1="304.4922" y2="304.4922"/><text fill="#000000" font-family="Arial" font-size="13" lengthAdjust="spacing" textLength="113.1343" x="594.8916" y="299.4263">Approve changes</text></g><line style="stroke:#000000;stroke-width:1;stroke-dasharray:2.0,2.0;" x1="245.0293" x2="1026.6206" y1="313.4922" y2="313.4922"/><text fill="#000000" font-family="Arial" font-size="11" font-weight="bold" lengthAdjust="spacing" textLength="116.3594" x="250.0293" y="323.7026">[Automated Mode]</text><g><polygon fill="#2C3E50" points="565.8916,344.4297,575.8916,348.4297,565.8916,352.4297,569.8916,348.4297" style="stroke:#2C3E50;stroke-width:1;"/><line style="stroke:#2C3E50;stroke-width:1;" x1="338.1919" x2="571.8916" y1="348.4297" y2="348.4297"/><text fill="#000000" font-family="Arial" font-size="13" lengthAdjust="spacing" textLength="215.6997" x="345.1919" y="343.3638">Auto-anonymize above threshold</text></g><g><line style="stroke:#2C3E50;stroke-width:1;" x1="577.8916" x2="619.8916" y1="384.5625" y2="384.5625"/><line style="stroke:#2C3E50;stroke-width:1;" x1="619.8916" x2="619.8916" y1="384.5625" y2="397.5625"/><line style="stroke:#2C3E50;stroke-width:1;" x1="578.8916" x2="619.8916" y1="397.5625" y2="397.5625"/><polygon fill="#2C3E50" points="588.8916,393.5625,578.8916,397.5625,588.8916,401.5625,584.8916,397.5625" style="stroke:#2C3E50;stroke-width:1;"/><text fill="#000000" font-family="Arial" font-size="13" lengthAdjust="spacing" textLength="131.4409" x="584.8916" y="379.4966">Replace with tokens</text></g><g><polygon fill="#2C3E50" points="906.6396,422.6953,916.6396,426.6953,906.6396,430.6953,910.6396,426.6953" style="stroke:#2C3E50;stroke-width:1;"/><line style="stroke:#2C3E50;stroke-width:1;" x1="577.8916" x2="912.6396" y1="426.6953" y2="426.6953"/><text fill="#000000" font-family="Arial" font-size="13" lengthAdjust="spacing" textLength="167.8511" x="584.8916" y="421.6294">Store anonymization map</text></g><path d="M519.1821,441.6953 L588.6333,441.6953 L588.6333,448.8281 L578.6333,458.8281 L519.1821,458.8281 L519.1821,441.6953 " fill="#EEEEEE" style="stroke:#000000;stroke-width:1.5;"/><rect fill="#FFFFFF" fill-opacity="0.00000" height="75.3984" style="stroke:#000000;stroke-width:1.5;" width="357.3867" x="519.1821" y="441.6953"/><text fill="#000000" font-family="Arial" font-size="13" font-weight="bold" lengthAdjust="spacing" textLength="24.4512" x="534.1821" y="454.7622">opt</text><text fill="#000000" font-family="Arial" font-size="11" font-weight="bold" lengthAdjust="spacing" textLength="151.1533" x="603.6333" y="453.9058">[Secondary Verification]</text><g><polygon fill="#2C3E50" points="739.585,475.9609,749.585,479.9609,739.585,483.9609,743.585,479.9609" style="stroke:#2C3E50;stroke-width:1;"/><line style="stroke:#2C3E50;stroke-width:1;" x1="577.8916" x2="745.585" y1="479.9609" y2="479.9609"/><text fill="#000000" font-family="Arial" font-size="13" lengthAdjust="spacing" textLength="131.8408" x="584.8916" y="474.895">Check for missed PII</text></g><g><polygon fill="#2C3E50" points="588.8916,505.0938,578.8916,509.0938,588.8916,513.0938,584.8916,509.0938" style="stroke:#2C3E50;stroke-width:1;"/><line style="stroke:#2C3E50;stroke-width:1;" x1="582.8916" x2="750.585" y1="509.0938" y2="509.0938"/><text fill="#000000" font-family="Arial" font-size="13" lengthAdjust="spacing" textLength="122.021" x="594.8916" y="504.0278">Verification results</text></g><g><polygon fill="#2C3E50" points="59.2646,541.2266,49.2646,545.2266,59.2646,549.2266,55.2646,545.2266" style="stroke:#2C3E50;stroke-width:1;"/><line style="stroke:#2C3E50;stroke-width:1;" x1="53.2646" x2="576.8916" y1="545.2266" y2="545.2266"/><text fill="#000000" font-family="Arial" font-size="13" lengthAdjust="spacing" textLength="214.0112" x="65.2646" y="540.1606">Generate anonymized document</text></g><!--SRC=[VLFBRjim4BphAnRk8Ut1G9gsbnmAg7OI16WQmsbxNuihcR345SYL7_twBgc7xKjkfcOuEpDSXvrrBNfiO8F5hlBSERFWcZs8HnSK8YTPc5Y6IkngUMGdlx0XoBt5-WBFlUT3B_3XRl7buTlj1VY3ZoiqnheAljvcsGqigRIEG56nXMtHISWk3Z1RSj4rwc066C1mSOt-fgF0mr6T5i8-SGfs-slIwlbPvmX52dpCArM3pvzwmU7pzONSiJirzX_rYgZ7znHVMx7ii8PU-gwNtfEtvIapABZ1G31xewBp13-vIdZDLIfWo0ShpmM5eDLa6XFctrCIk8UtRjDOYTaJCKkV5HwzAsLe04JhYA9dVseiSom4tbPR0IxFaG7c0mcUbglrF90BLkoUmBgI4vohdyf58wKrv0g20qMTaD052bNijQSqK4ujXOoSWJWmsXXxn6G3Qu4NT9qMzSA6L0BE6JHFh3d5hIeAaexJvP3OYQ7CsPymF4sdF_JEclQM3b1iqUdTn4t8MJLlMyyQRQHGhK-ITyADXZ3l6egi-UY603THHxQUmfPh4mDdsUXikBAcjiRObfKj2E-qsOcYxnvJwWowpWWDjh6rQPt-nWsoHTyUjmAwGUmC-jCrT5bDltKwOB6bOWUb9cbi21fHdoWn1yRPxAKMQ2hzSuS-rGqyscZajPEsaob1NCzxU297NikRGkYCSKV_0m00]--></g></svg>