<svg xmlns="http://www.w3.org/2000/svg" xmlns:xlink="http://www.w3.org/1999/xlink" contentStyleType="text/css" data-diagram-type="SEQUENCE" height="707px" preserveAspectRatio="none" style="width:1108px;height:707px;" version="1.1" viewBox="0 0 1108 707" width="1108px" zoomAndPan="magnify"><defs/><g><rect fill="#FFFFCC" height="26.6406" rx="2.5" ry="2.5" style="stroke:#FFDD88;stroke-width:3;" width="1097.1943" x="5" y="5"/><text fill="#000000" font-family="monospace" font-size="10" lengthAdjust="spacing" textLength="355.21" x="10" y="20">Please&#160;use&#160;'!option&#160;handwritten&#160;true'&#160;to&#160;enable&#160;handwritten</text><rect fill="#FFFFFF" fill-opacity="0.00000" height="148.4688" style="stroke:#000000;stroke-width:1.5;" width="683.4883" x="402.7061" y="273.7344"/><rect fill="#FFFFFF" fill-opacity="0.00000" height="75.3984" style="stroke:#000000;stroke-width:1.5;" width="294.3691" x="641.7734" y="507.4688"/><g><title>Document</title><rect fill="#FFFFFF" fill-opacity="0.00000" height="525.0625" width="8" x="44.2646" y="103.9375"/><line style="stroke:#181818;stroke-width:0.5;stroke-dasharray:5.0,5.0;" x1="48" x2="48" y1="103.9375" y2="629"/></g><g><title>Text Converter</title><rect fill="#FFFFFF" fill-opacity="0.00000" height="525.0625" width="8" x="184.103" y="103.9375"/><line style="stroke:#181818;stroke-width:0.5;stroke-dasharray:5.0,5.0;" x1="187.5449" x2="187.5449" y1="103.9375" y2="629"/></g><g><title>Anonymization API</title><rect fill="#FFFFFF" fill-opacity="0.00000" height="525.0625" width="8" x="326.1836" y="103.9375"/><line style="stroke:#181818;stroke-width:0.5;stroke-dasharray:5.0,5.0;" x1="329.6611" x2="329.6611" y1="103.9375" y2="629"/></g><g><title>PII Detector</title><rect fill="#FFFFFF" fill-opacity="0.00000" height="525.0625" width="8" x="456.7832" y="103.9375"/><line style="stroke:#181818;stroke-width:0.5;stroke-dasharray:5.0,5.0;" x1="460.7061" x2="460.7061" y1="103.9375" y2="629"/></g><g><title>Anonymizer</title><rect fill="#FFFFFF" fill-opacity="0.00000" height="525.0625" width="8" x="696.4829" y="103.9375"/><line style="stroke:#181818;stroke-width:0.5;stroke-dasharray:5.0,5.0;" x1="699.7734" x2="699.7734" y1="103.9375" y2="629"/></g><g><title>Verification Agent</title><rect fill="#FFFFFF" fill-opacity="0.00000" height="525.0625" width="8" x="852.3237" y="103.9375"/><line style="stroke:#181818;stroke-width:0.5;stroke-dasharray:5.0,5.0;" x1="855.5049" x2="855.5049" y1="103.9375" y2="629"/></g><g><title>Secure Log</title><rect fill="#FFFFFF" fill-opacity="0.00000" height="525.0625" width="8" x="974.2134" y="103.9375"/><line style="stroke:#181818;stroke-width:0.5;stroke-dasharray:5.0,5.0;" x1="978.1426" x2="978.1426" y1="103.9375" y2="629"/></g><g><title>User</title><rect fill="#FFFFFF" fill-opacity="0.00000" height="525.0625" width="8" x="1049.2393" y="103.9375"/><line style="stroke:#181818;stroke-width:0.5;stroke-dasharray:5.0,5.0;" x1="1052.2842" x2="1052.2842" y1="103.9375" y2="629"/></g><g><rect fill="#E2E2F0" height="30.2969" rx="2.5" ry="2.5" style="stroke:#181818;stroke-width:0.5;" width="86.5293" x="5" y="72.6406"/><text fill="#000000" font-family="Arial" font-size="14" lengthAdjust="spacing" textLength="72.5293" x="12" y="92.6357">Document</text></g><g><rect fill="#E2E2F0" height="30.2969" rx="2.5" ry="2.5" style="stroke:#181818;stroke-width:0.5;" width="86.5293" x="5" y="628"/><text fill="#000000" font-family="Arial" font-size="14" lengthAdjust="spacing" textLength="72.5293" x="12" y="647.9951">Document</text></g><g><rect fill="#E2E2F0" height="30.2969" rx="2.5" ry="2.5" style="stroke:#181818;stroke-width:0.5;" width="119.1162" x="128.5449" y="72.6406"/><text fill="#000000" font-family="Arial" font-size="14" lengthAdjust="spacing" textLength="105.1162" x="135.5449" y="92.6357">Text Converter</text></g><g><rect fill="#E2E2F0" height="30.2969" rx="2.5" ry="2.5" style="stroke:#181818;stroke-width:0.5;" width="119.1162" x="128.5449" y="628"/><text fill="#000000" font-family="Arial" font-size="14" lengthAdjust="spacing" textLength="105.1162" x="135.5449" y="647.9951">Text Converter</text></g><g><rect fill="#E2E2F0" height="30.2969" rx="2.5" ry="2.5" style="stroke:#181818;stroke-width:0.5;" width="145.0449" x="257.6611" y="72.6406"/><text fill="#000000" font-family="Arial" font-size="14" lengthAdjust="spacing" textLength="131.0449" x="264.6611" y="92.6357">Anonymization API</text></g><g><rect fill="#E2E2F0" height="30.2969" rx="2.5" ry="2.5" style="stroke:#181818;stroke-width:0.5;" width="145.0449" x="257.6611" y="628"/><text fill="#000000" font-family="Arial" font-size="14" lengthAdjust="spacing" textLength="131.0449" x="264.6611" y="647.9951">Anonymization API</text></g><g><rect fill="#E2E2F0" height="30.2969" rx="2.5" ry="2.5" style="stroke:#181818;stroke-width:0.5;" width="96.1543" x="412.7061" y="72.6406"/><text fill="#000000" font-family="Arial" font-size="14" lengthAdjust="spacing" textLength="82.1543" x="419.7061" y="92.6357">PII Detector</text></g><g><rect fill="#E2E2F0" height="30.2969" rx="2.5" ry="2.5" style="stroke:#181818;stroke-width:0.5;" width="96.1543" x="412.7061" y="628"/><text fill="#000000" font-family="Arial" font-size="14" lengthAdjust="spacing" textLength="82.1543" x="419.7061" y="647.9951">PII Detector</text></g><g><rect fill="#E2E2F0" height="30.2969" rx="2.5" ry="2.5" style="stroke:#181818;stroke-width:0.5;" width="97.4189" x="651.7734" y="72.6406"/><text fill="#000000" font-family="Arial" font-size="14" lengthAdjust="spacing" textLength="83.4189" x="658.7734" y="92.6357">Anonymizer</text></g><g><rect fill="#E2E2F0" height="30.2969" rx="2.5" ry="2.5" style="stroke:#181818;stroke-width:0.5;" width="97.4189" x="651.7734" y="628"/><text fill="#000000" font-family="Arial" font-size="14" lengthAdjust="spacing" textLength="83.4189" x="658.7734" y="647.9951">Anonymizer</text></g><g><rect fill="#E2E2F0" height="46.5938" rx="2.5" ry="2.5" style="stroke:#181818;stroke-width:0.5;" width="139.6377" x="786.5049" y="56.3438"/><text fill="#000000" font-family="Arial" font-size="14" lengthAdjust="spacing" textLength="125.6377" x="793.5049" y="76.3389">Verification Agent</text><text fill="#000000" font-family="Arial" font-size="14" lengthAdjust="spacing" textLength="70.1162" x="821.2656" y="92.6357">(Optional)</text></g><g><rect fill="#E2E2F0" height="46.5938" rx="2.5" ry="2.5" style="stroke:#181818;stroke-width:0.5;" width="139.6377" x="786.5049" y="628"/><text fill="#000000" font-family="Arial" font-size="14" lengthAdjust="spacing" textLength="125.6377" x="793.5049" y="647.9951">Verification Agent</text><text fill="#000000" font-family="Arial" font-size="14" lengthAdjust="spacing" textLength="70.1162" x="821.2656" y="664.292">(Optional)</text></g><g><text fill="#000000" font-family="Arial" font-size="14" lengthAdjust="spacing" textLength="78.1416" x="936.1426" y="100.6357">Secure Log</text><path d="M960.2134,51.6406 C960.2134,41.6406 978.2134,41.6406 978.2134,41.6406 C978.2134,41.6406 996.2134,41.6406 996.2134,51.6406 L996.2134,77.6406 C996.2134,87.6406 978.2134,87.6406 978.2134,87.6406 C978.2134,87.6406 960.2134,87.6406 960.2134,77.6406 L960.2134,51.6406 " fill="#E2E2F0" style="stroke:#181818;stroke-width:1.5;"/><path d="M960.2134,51.6406 C960.2134,61.6406 978.2134,61.6406 978.2134,61.6406 C978.2134,61.6406 996.2134,61.6406 996.2134,51.6406 " fill="#FFFFFF" fill-opacity="0.00000" style="stroke:#181818;stroke-width:1.5;"/></g><g><text fill="#000000" font-family="Arial" font-size="14" lengthAdjust="spacing" textLength="78.1416" x="936.1426" y="640.9951">Secure Log</text><path d="M960.2134,654.2969 C960.2134,644.2969 978.2134,644.2969 978.2134,644.2969 C978.2134,644.2969 996.2134,644.2969 996.2134,654.2969 L996.2134,680.2969 C996.2134,690.2969 978.2134,690.2969 978.2134,690.2969 C978.2134,690.2969 960.2134,690.2969 960.2134,680.2969 L960.2134,654.2969 " fill="#E2E2F0" style="stroke:#181818;stroke-width:1.5;"/><path d="M960.2134,654.2969 C960.2134,664.2969 978.2134,664.2969 978.2134,664.2969 C978.2134,664.2969 996.2134,664.2969 996.2134,654.2969 " fill="#FFFFFF" fill-opacity="0.00000" style="stroke:#181818;stroke-width:1.5;"/></g><g><rect fill="#E2E2F0" height="30.2969" rx="2.5" ry="2.5" style="stroke:#181818;stroke-width:0.5;" width="45.9102" x="1030.2842" y="72.6406"/><text fill="#000000" font-family="Arial" font-size="14" lengthAdjust="spacing" textLength="31.9102" x="1037.2842" y="92.6357">User</text></g><g><rect fill="#E2E2F0" height="30.2969" rx="2.5" ry="2.5" style="stroke:#181818;stroke-width:0.5;" width="45.9102" x="1030.2842" y="628"/><text fill="#000000" font-family="Arial" font-size="14" lengthAdjust="spacing" textLength="31.9102" x="1037.2842" y="647.9951">User</text></g><g><polygon fill="#2C3E50" points="176.103,131.0703,186.103,135.0703,176.103,139.0703,180.103,135.0703" style="stroke:#2C3E50;stroke-width:1;"/><line style="stroke:#2C3E50;stroke-width:1;" x1="48.2646" x2="182.103" y1="135.0703" y2="135.0703"/><text fill="#000000" font-family="Arial" font-size="13" lengthAdjust="spacing" textLength="115.8384" x="55.2646" y="130.0044">Submit document</text></g><g><polygon fill="#2C3E50" points="318.1836,160.2031,328.1836,164.2031,318.1836,168.2031,322.1836,164.2031" style="stroke:#2C3E50;stroke-width:1;"/><line style="stroke:#2C3E50;stroke-width:1;" x1="188.103" x2="324.1836" y1="164.2031" y2="164.2031"/><text fill="#000000" font-family="Arial" font-size="13" lengthAdjust="spacing" textLength="98.6045" x="195.103" y="159.1372">Convert to text</text></g><g><polygon fill="#2C3E50" points="448.7832,189.3359,458.7832,193.3359,448.7832,197.3359,452.7832,193.3359" style="stroke:#2C3E50;stroke-width:1;"/><line style="stroke:#2C3E50;stroke-width:1;" x1="330.1836" x2="454.7832" y1="193.3359" y2="193.3359"/><text fill="#000000" font-family="Arial" font-size="13" lengthAdjust="spacing" textLength="81.2437" x="337.1836" y="188.27">Analyze text</text></g><path d="M465,206.3359 L465,261.3359 L670,261.3359 L670,216.3359 L660,206.3359 L465,206.3359 " fill="#FEFFDD" style="stroke:#181818;stroke-width:0.5;"/><path d="M660,206.3359 L660,216.3359 L670,216.3359 L660,206.3359 " fill="#FEFFDD" style="stroke:#181818;stroke-width:0.5;"/><text fill="#000000" font-family="Arial" font-size="13" lengthAdjust="spacing" textLength="184.2598" x="471" y="223.4028">- Detect GDPR-sensitive info</text><text fill="#000000" font-family="Arial" font-size="13" lengthAdjust="spacing" textLength="181.397" x="471" y="238.5356">- Assign confidence weights</text><text fill="#000000" font-family="Arial" font-size="13" lengthAdjust="spacing" textLength="138.5313" x="471" y="253.6685">- Categorize PII types</text><path d="M402.7061,273.7344 L467.1489,273.7344 L467.1489,280.8672 L457.1489,290.8672 L402.7061,290.8672 L402.7061,273.7344 " fill="#EEEEEE" style="stroke:#000000;stroke-width:1.5;"/><rect fill="#FFFFFF" fill-opacity="0.00000" height="148.4688" style="stroke:#000000;stroke-width:1.5;" width="683.4883" x="402.7061" y="273.7344"/><text fill="#000000" font-family="Arial" font-size="13" font-weight="bold" lengthAdjust="spacing" textLength="19.4429" x="417.7061" y="286.8013">alt</text><text fill="#000000" font-family="Arial" font-size="11" font-weight="bold" lengthAdjust="spacing" textLength="92.9468" x="482.1489" y="285.9448">[Manual Mode]</text><g><polygon fill="#2C3E50" points="688.4829,308,698.4829,312,688.4829,316,692.4829,312" style="stroke:#2C3E50;stroke-width:1;"/><line style="stroke:#2C3E50;stroke-width:1;" x1="460.7832" x2="694.4829" y1="312" y2="312"/><text fill="#000000" font-family="Arial" font-size="13" lengthAdjust="spacing" textLength="159.8276" x="467.7832" y="306.9341">Suggest anonymizations</text></g><g><polygon fill="#2C3E50" points="1041.2393,337.1328,1051.2393,341.1328,1041.2393,345.1328,1045.2393,341.1328" style="stroke:#2C3E50;stroke-width:1;"/><line style="stroke:#2C3E50;stroke-width:1;" x1="700.4829" x2="1047.2393" y1="341.1328" y2="341.1328"/><text fill="#000000" font-family="Arial" font-size="13" lengthAdjust="spacing" textLength="105.7139" x="707.4829" y="336.0669">Review changes</text></g><g><polygon fill="#2C3E50" points="711.4829,366.2656,701.4829,370.2656,711.4829,374.2656,707.4829,370.2656" style="stroke:#2C3E50;stroke-width:1;"/><line style="stroke:#2C3E50;stroke-width:1;" x1="705.4829" x2="1052.2393" y1="370.2656" y2="370.2656"/><text fill="#000000" font-family="Arial" font-size="13" lengthAdjust="spacing" textLength="113.1343" x="717.4829" y="365.1997">Approve changes</text></g><line style="stroke:#000000;stroke-width:1;stroke-dasharray:2.0,2.0;" x1="402.7061" x2="1086.1943" y1="379.2656" y2="379.2656"/><text fill="#000000" font-family="Arial" font-size="11" font-weight="bold" lengthAdjust="spacing" textLength="116.3594" x="407.7061" y="389.4761">[Automated Mode]</text><g><polygon fill="#2C3E50" points="688.4829,410.2031,698.4829,414.2031,688.4829,418.2031,692.4829,414.2031" style="stroke:#2C3E50;stroke-width:1;"/><line style="stroke:#2C3E50;stroke-width:1;" x1="460.7832" x2="694.4829" y1="414.2031" y2="414.2031"/><text fill="#000000" font-family="Arial" font-size="13" lengthAdjust="spacing" textLength="215.6997" x="467.7832" y="409.1372">Auto-anonymize above threshold</text></g><g><line style="stroke:#2C3E50;stroke-width:1;" x1="700.4829" x2="742.4829" y1="450.3359" y2="450.3359"/><line style="stroke:#2C3E50;stroke-width:1;" x1="742.4829" x2="742.4829" y1="450.3359" y2="463.3359"/><line style="stroke:#2C3E50;stroke-width:1;" x1="701.4829" x2="742.4829" y1="463.3359" y2="463.3359"/><polygon fill="#2C3E50" points="711.4829,459.3359,701.4829,463.3359,711.4829,467.3359,707.4829,463.3359" style="stroke:#2C3E50;stroke-width:1;"/><text fill="#000000" font-family="Arial" font-size="13" lengthAdjust="spacing" textLength="131.4409" x="707.4829" y="445.27">Replace with tokens</text></g><g><polygon fill="#2C3E50" points="966.2134,488.4688,976.2134,492.4688,966.2134,496.4688,970.2134,492.4688" style="stroke:#2C3E50;stroke-width:1;"/><line style="stroke:#2C3E50;stroke-width:1;" x1="700.4829" x2="972.2134" y1="492.4688" y2="492.4688"/><text fill="#000000" font-family="Arial" font-size="13" lengthAdjust="spacing" textLength="167.8511" x="707.4829" y="487.4028">Store anonymization map</text></g><path d="M641.7734,507.4688 L711.2246,507.4688 L711.2246,514.6016 L701.2246,524.6016 L641.7734,524.6016 L641.7734,507.4688 " fill="#EEEEEE" style="stroke:#000000;stroke-width:1.5;"/><rect fill="#FFFFFF" fill-opacity="0.00000" height="75.3984" style="stroke:#000000;stroke-width:1.5;" width="294.3691" x="641.7734" y="507.4688"/><text fill="#000000" font-family="Arial" font-size="13" font-weight="bold" lengthAdjust="spacing" textLength="24.4512" x="656.7734" y="520.5356">opt</text><text fill="#000000" font-family="Arial" font-size="11" font-weight="bold" lengthAdjust="spacing" textLength="151.1533" x="726.2246" y="519.6792">[Secondary Verification]</text><g><polygon fill="#2C3E50" points="844.3237,541.7344,854.3237,545.7344,844.3237,549.7344,848.3237,545.7344" style="stroke:#2C3E50;stroke-width:1;"/><line style="stroke:#2C3E50;stroke-width:1;" x1="700.4829" x2="850.3237" y1="545.7344" y2="545.7344"/><text fill="#000000" font-family="Arial" font-size="13" lengthAdjust="spacing" textLength="131.8408" x="707.4829" y="540.6685">Check for missed PII</text></g><g><polygon fill="#2C3E50" points="711.4829,570.8672,701.4829,574.8672,711.4829,578.8672,707.4829,574.8672" style="stroke:#2C3E50;stroke-width:1;"/><line style="stroke:#2C3E50;stroke-width:1;" x1="705.4829" x2="855.3237" y1="574.8672" y2="574.8672"/><text fill="#000000" font-family="Arial" font-size="13" lengthAdjust="spacing" textLength="122.021" x="717.4829" y="569.8013">Verification results</text></g><g><polygon fill="#2C3E50" points="59.2646,607,49.2646,611,59.2646,615,55.2646,611" style="stroke:#2C3E50;stroke-width:1;"/><line style="stroke:#2C3E50;stroke-width:1;" x1="53.2646" x2="699.4829" y1="611" y2="611"/><text fill="#000000" font-family="Arial" font-size="13" lengthAdjust="spacing" textLength="214.0112" x="65.2646" y="605.9341">Generate anonymized document</text></g><!--SRC=[VLJBRjj03BplLn3k8Ut1GD379OS2gjq41fh6S9gUUg6rbBomj1HsAJlErvUxbXy2YjvCpv2ScQKTjyvt6B25DPRREd3lxOmR3Y01VLI8l9XuPctGstrm8kIXmYRI5MQfmhwHU_Ro4rk28ZXihl0Y1DuVXx_xEFlq_Slj5VYDNvTehVCrVBurvWRcL3bFeAYuqdNe9Pgh0YPpBljMrKq08rWkn-WlUXMOiTzH40gPKser9XMU_Q5rRoYEFHJBHUPXvyQqvMAXSeHAuUCaEnJ_dZQiGot7XDyKNENAOLkjsl_uzqzTAh7va9jsYN8m5WNN60acprJsWU07rnblkCxX3DvX6RYa63Ksen70z6js2NVmtAzR9ocNJ3JvQuNLdA93C20Cea6baHUJAiSach9FHhMbK8s7DphoFGj1SFL6WAjB703JOGOyp9UhQIGVdRWTWVCLPxXGiRLFAYjdoPS4UqfpOaPdA5Hpq0op7Zbq50rv2sbXKZbwCOEDm2Fw7XjuP4iw0YwIarbbvopgcgBayjmSCpipb3bvYSEpzVf1UrQqSxI7KWzUUpCt8vUfHTS5Lcid2kcl0OfUk5KJzh-24cjwKaE0wpH7De7YXXkR31jpKZQqhAXhCANbPAFFjjLapnGzYkHITz3O8xJOfTHEDmRN5sYu4z3pOcyn7CRGTJJ7aqn7iw5o2vKwQLsCQb6VA3C7naNiwD3LbVuhnAEh6xXtISXJBrqlPmVfTk_WWJm53UziGdUS3lWl]--></g></svg>