<svg xmlns="http://www.w3.org/2000/svg" xmlns:xlink="http://www.w3.org/1999/xlink" contentStyleType="text/css" data-diagram-type="SEQUENCE" height="707px" preserveAspectRatio="none" style="width:1203px;height:707px;" version="1.1" viewBox="0 0 1203 707" width="1203px" zoomAndPan="magnify"><defs/><g><rect fill="#FFFFCC" height="26.6406" rx="2.5" ry="2.5" style="stroke:#FFDD88;stroke-width:3;" width="1192.6655" x="5" y="5"/><text fill="#000000" font-family="monospace" font-size="10" lengthAdjust="spacing" textLength="355.21" x="10" y="20">Please&#160;use&#160;'!option&#160;handwritten&#160;true'&#160;to&#160;enable&#160;handwritten</text><rect fill="#FFFFFF" fill-opacity="0.00000" height="148.4688" style="stroke:#000000;stroke-width:1.5;" width="781.5913" x="400.0742" y="273.7344"/><rect fill="#FFFFFF" fill-opacity="0.00000" height="75.3984" style="stroke:#000000;stroke-width:1.5;" width="357.3867" x="674.2271" y="507.4688"/><g><title>Document</title><rect fill="#FFFFFF" fill-opacity="0.00000" height="525.0625" width="8" x="44.2646" y="103.9375"/><line style="stroke:#181818;stroke-width:0.5;stroke-dasharray:5.0,5.0;" x1="48" x2="48" y1="103.9375" y2="629"/></g><g><title>Text Extractor</title><rect fill="#FFFFFF" fill-opacity="0.00000" height="525.0625" width="8" x="184.103" y="103.9375"/><line style="stroke:#181818;stroke-width:0.5;stroke-dasharray:5.0,5.0;" x1="187.1768" x2="187.1768" y1="103.9375" y2="629"/></g><g><title>Anonymization API</title><rect fill="#FFFFFF" fill-opacity="0.00000" height="525.0625" width="8" x="323.5518" y="103.9375"/><line style="stroke:#181818;stroke-width:0.5;stroke-dasharray:5.0,5.0;" x1="327.0293" x2="327.0293" y1="103.9375" y2="629"/></g><g><title>PII Detector (Agent 1)</title><rect fill="#FFFFFF" fill-opacity="0.00000" height="525.0625" width="8" x="489.2368" y="103.9375"/><line style="stroke:#181818;stroke-width:0.5;stroke-dasharray:5.0,5.0;" x1="493.0742" x2="493.0742" y1="103.9375" y2="629"/></g><g><title>Anonymizer</title><rect fill="#FFFFFF" fill-opacity="0.00000" height="525.0625" width="8" x="728.9365" y="103.9375"/><line style="stroke:#181818;stroke-width:0.5;stroke-dasharray:5.0,5.0;" x1="732.2271" x2="732.2271" y1="103.9375" y2="629"/></g><g><title>PII Detector (Optional Agent 1)</title><rect fill="#FFFFFF" fill-opacity="0.00000" height="525.0625" width="8" x="902.6299" y="103.9375"/><line style="stroke:#181818;stroke-width:0.5;stroke-dasharray:5.0,5.0;" x1="905.646" x2="905.646" y1="103.9375" y2="629"/></g><g><title>Secure Log</title><rect fill="#FFFFFF" fill-opacity="0.00000" height="525.0625" width="8" x="1069.6846" y="103.9375"/><line style="stroke:#181818;stroke-width:0.5;stroke-dasharray:5.0,5.0;" x1="1073.6138" x2="1073.6138" y1="103.9375" y2="629"/></g><g><title>User</title><rect fill="#FFFFFF" fill-opacity="0.00000" height="525.0625" width="8" x="1144.7104" y="103.9375"/><line style="stroke:#181818;stroke-width:0.5;stroke-dasharray:5.0,5.0;" x1="1147.7554" x2="1147.7554" y1="103.9375" y2="629"/></g><g><rect fill="#E2E2F0" height="30.2969" rx="2.5" ry="2.5" style="stroke:#181818;stroke-width:0.5;" width="86.5293" x="5" y="72.6406"/><text fill="#000000" font-family="Arial" font-size="14" lengthAdjust="spacing" textLength="72.5293" x="12" y="92.6357">Document</text></g><g><rect fill="#E2E2F0" height="30.2969" rx="2.5" ry="2.5" style="stroke:#181818;stroke-width:0.5;" width="86.5293" x="5" y="628"/><text fill="#000000" font-family="Arial" font-size="14" lengthAdjust="spacing" textLength="72.5293" x="12" y="647.9951">Document</text></g><g><rect fill="#E2E2F0" height="30.2969" rx="2.5" ry="2.5" style="stroke:#181818;stroke-width:0.5;" width="113.8525" x="131.1768" y="72.6406"/><text fill="#000000" font-family="Arial" font-size="14" lengthAdjust="spacing" textLength="99.8525" x="138.1768" y="92.6357">Text Extractor</text></g><g><rect fill="#E2E2F0" height="30.2969" rx="2.5" ry="2.5" style="stroke:#181818;stroke-width:0.5;" width="113.8525" x="131.1768" y="628"/><text fill="#000000" font-family="Arial" font-size="14" lengthAdjust="spacing" textLength="99.8525" x="138.1768" y="647.9951">Text Extractor</text></g><g><rect fill="#E2E2F0" height="30.2969" rx="2.5" ry="2.5" style="stroke:#181818;stroke-width:0.5;" width="145.0449" x="255.0293" y="72.6406"/><text fill="#000000" font-family="Arial" font-size="14" lengthAdjust="spacing" textLength="131.0449" x="262.0293" y="92.6357">Anonymization API</text></g><g><rect fill="#E2E2F0" height="30.2969" rx="2.5" ry="2.5" style="stroke:#181818;stroke-width:0.5;" width="145.0449" x="255.0293" y="628"/><text fill="#000000" font-family="Arial" font-size="14" lengthAdjust="spacing" textLength="131.0449" x="262.0293" y="647.9951">Anonymization API</text></g><g><rect fill="#E2E2F0" height="30.2969" rx="2.5" ry="2.5" style="stroke:#181818;stroke-width:0.5;" width="166.3252" x="410.0742" y="72.6406"/><text fill="#000000" font-family="Arial" font-size="14" lengthAdjust="spacing" textLength="152.3252" x="417.0742" y="92.6357">PII Detector (Agent 1)</text></g><g><rect fill="#E2E2F0" height="30.2969" rx="2.5" ry="2.5" style="stroke:#181818;stroke-width:0.5;" width="166.3252" x="410.0742" y="628"/><text fill="#000000" font-family="Arial" font-size="14" lengthAdjust="spacing" textLength="152.3252" x="417.0742" y="647.9951">PII Detector (Agent 1)</text></g><g><rect fill="#E2E2F0" height="30.2969" rx="2.5" ry="2.5" style="stroke:#181818;stroke-width:0.5;" width="97.4189" x="684.2271" y="72.6406"/><text fill="#000000" font-family="Arial" font-size="14" lengthAdjust="spacing" textLength="83.4189" x="691.2271" y="92.6357">Anonymizer</text></g><g><rect fill="#E2E2F0" height="30.2969" rx="2.5" ry="2.5" style="stroke:#181818;stroke-width:0.5;" width="97.4189" x="684.2271" y="628"/><text fill="#000000" font-family="Arial" font-size="14" lengthAdjust="spacing" textLength="83.4189" x="691.2271" y="647.9951">Anonymizer</text></g><g><rect fill="#E2E2F0" height="30.2969" rx="2.5" ry="2.5" style="stroke:#181818;stroke-width:0.5;" width="229.9678" x="791.646" y="72.6406"/><text fill="#000000" font-family="Arial" font-size="14" lengthAdjust="spacing" textLength="215.9678" x="798.646" y="92.6357">PII Detector (Optional Agent 1)</text></g><g><rect fill="#E2E2F0" height="30.2969" rx="2.5" ry="2.5" style="stroke:#181818;stroke-width:0.5;" width="229.9678" x="791.646" y="628"/><text fill="#000000" font-family="Arial" font-size="14" lengthAdjust="spacing" textLength="215.9678" x="798.646" y="647.9951">PII Detector (Optional Agent 1)</text></g><g><text fill="#000000" font-family="Arial" font-size="14" lengthAdjust="spacing" textLength="78.1416" x="1031.6138" y="100.6357">Secure Log</text><path d="M1055.6846,51.6406 C1055.6846,41.6406 1073.6846,41.6406 1073.6846,41.6406 C1073.6846,41.6406 1091.6846,41.6406 1091.6846,51.6406 L1091.6846,77.6406 C1091.6846,87.6406 1073.6846,87.6406 1073.6846,87.6406 C1073.6846,87.6406 1055.6846,87.6406 1055.6846,77.6406 L1055.6846,51.6406 " fill="#E2E2F0" style="stroke:#181818;stroke-width:1.5;"/><path d="M1055.6846,51.6406 C1055.6846,61.6406 1073.6846,61.6406 1073.6846,61.6406 C1073.6846,61.6406 1091.6846,61.6406 1091.6846,51.6406 " fill="#FFFFFF" fill-opacity="0.00000" style="stroke:#181818;stroke-width:1.5;"/></g><g><text fill="#000000" font-family="Arial" font-size="14" lengthAdjust="spacing" textLength="78.1416" x="1031.6138" y="640.9951">Secure Log</text><path d="M1055.6846,654.2969 C1055.6846,644.2969 1073.6846,644.2969 1073.6846,644.2969 C1073.6846,644.2969 1091.6846,644.2969 1091.6846,654.2969 L1091.6846,680.2969 C1091.6846,690.2969 1073.6846,690.2969 1073.6846,690.2969 C1073.6846,690.2969 1055.6846,690.2969 1055.6846,680.2969 L1055.6846,654.2969 " fill="#E2E2F0" style="stroke:#181818;stroke-width:1.5;"/><path d="M1055.6846,654.2969 C1055.6846,664.2969 1073.6846,664.2969 1073.6846,664.2969 C1073.6846,664.2969 1091.6846,664.2969 1091.6846,654.2969 " fill="#FFFFFF" fill-opacity="0.00000" style="stroke:#181818;stroke-width:1.5;"/></g><g><rect fill="#E2E2F0" height="30.2969" rx="2.5" ry="2.5" style="stroke:#181818;stroke-width:0.5;" width="45.9102" x="1125.7554" y="72.6406"/><text fill="#000000" font-family="Arial" font-size="14" lengthAdjust="spacing" textLength="31.9102" x="1132.7554" y="92.6357">User</text></g><g><rect fill="#E2E2F0" height="30.2969" rx="2.5" ry="2.5" style="stroke:#181818;stroke-width:0.5;" width="45.9102" x="1125.7554" y="628"/><text fill="#000000" font-family="Arial" font-size="14" lengthAdjust="spacing" textLength="31.9102" x="1132.7554" y="647.9951">User</text></g><g><polygon fill="#2C3E50" points="176.103,131.0703,186.103,135.0703,176.103,139.0703,180.103,135.0703" style="stroke:#2C3E50;stroke-width:1;"/><line style="stroke:#2C3E50;stroke-width:1;" x1="48.2646" x2="182.103" y1="135.0703" y2="135.0703"/><text fill="#000000" font-family="Arial" font-size="13" lengthAdjust="spacing" textLength="115.8384" x="55.2646" y="130.0044">Submit document</text></g><g><polygon fill="#2C3E50" points="315.5518,160.2031,325.5518,164.2031,315.5518,168.2031,319.5518,164.2031" style="stroke:#2C3E50;stroke-width:1;"/><line style="stroke:#2C3E50;stroke-width:1;" x1="188.103" x2="321.5518" y1="164.2031" y2="164.2031"/><text fill="#000000" font-family="Arial" font-size="13" lengthAdjust="spacing" textLength="76.5781" x="195.103" y="159.1372">Extract text</text></g><g><polygon fill="#2C3E50" points="481.2368,189.3359,491.2368,193.3359,481.2368,197.3359,485.2368,193.3359" style="stroke:#2C3E50;stroke-width:1;"/><line style="stroke:#2C3E50;stroke-width:1;" x1="327.5518" x2="487.2368" y1="193.3359" y2="193.3359"/><text fill="#000000" font-family="Arial" font-size="13" lengthAdjust="spacing" textLength="81.2437" x="334.5518" y="188.27">Analyze text</text></g><path d="M498,206.3359 L498,261.3359 L703,261.3359 L703,216.3359 L693,206.3359 L498,206.3359 " fill="#FEFFDD" style="stroke:#181818;stroke-width:0.5;"/><path d="M693,206.3359 L693,216.3359 L703,216.3359 L693,206.3359 " fill="#FEFFDD" style="stroke:#181818;stroke-width:0.5;"/><text fill="#000000" font-family="Arial" font-size="13" lengthAdjust="spacing" textLength="184.2598" x="504" y="223.4028">- Detect GDPR-sensitive info</text><text fill="#000000" font-family="Arial" font-size="13" lengthAdjust="spacing" textLength="181.397" x="504" y="238.5356">- Assign confidence weights</text><text fill="#000000" font-family="Arial" font-size="13" lengthAdjust="spacing" textLength="138.5313" x="504" y="253.6685">- Categorize PII types</text><path d="M400.0742,273.7344 L464.5171,273.7344 L464.5171,280.8672 L454.5171,290.8672 L400.0742,290.8672 L400.0742,273.7344 " fill="#EEEEEE" style="stroke:#000000;stroke-width:1.5;"/><rect fill="#FFFFFF" fill-opacity="0.00000" height="148.4688" style="stroke:#000000;stroke-width:1.5;" width="781.5913" x="400.0742" y="273.7344"/><text fill="#000000" font-family="Arial" font-size="13" font-weight="bold" lengthAdjust="spacing" textLength="19.4429" x="415.0742" y="286.8013">alt</text><text fill="#000000" font-family="Arial" font-size="11" font-weight="bold" lengthAdjust="spacing" textLength="92.9468" x="479.5171" y="285.9448">[Manual Mode]</text><g><polygon fill="#2C3E50" points="720.9365,308,730.9365,312,720.9365,316,724.9365,312" style="stroke:#2C3E50;stroke-width:1;"/><line style="stroke:#2C3E50;stroke-width:1;" x1="493.2368" x2="726.9365" y1="312" y2="312"/><text fill="#000000" font-family="Arial" font-size="13" lengthAdjust="spacing" textLength="159.8276" x="500.2368" y="306.9341">Suggest anonymizations</text></g><g><polygon fill="#2C3E50" points="1136.7104,337.1328,1146.7104,341.1328,1136.7104,345.1328,1140.7104,341.1328" style="stroke:#2C3E50;stroke-width:1;"/><line style="stroke:#2C3E50;stroke-width:1;" x1="732.9365" x2="1142.7104" y1="341.1328" y2="341.1328"/><text fill="#000000" font-family="Arial" font-size="13" lengthAdjust="spacing" textLength="105.7139" x="739.9365" y="336.0669">Review changes</text></g><g><polygon fill="#2C3E50" points="743.9365,366.2656,733.9365,370.2656,743.9365,374.2656,739.9365,370.2656" style="stroke:#2C3E50;stroke-width:1;"/><line style="stroke:#2C3E50;stroke-width:1;" x1="737.9365" x2="1147.7104" y1="370.2656" y2="370.2656"/><text fill="#000000" font-family="Arial" font-size="13" lengthAdjust="spacing" textLength="113.1343" x="749.9365" y="365.1997">Approve changes</text></g><line style="stroke:#000000;stroke-width:1;stroke-dasharray:2.0,2.0;" x1="400.0742" x2="1181.6655" y1="379.2656" y2="379.2656"/><text fill="#000000" font-family="Arial" font-size="11" font-weight="bold" lengthAdjust="spacing" textLength="116.3594" x="405.0742" y="389.4761">[Automated Mode]</text><g><polygon fill="#2C3E50" points="720.9365,410.2031,730.9365,414.2031,720.9365,418.2031,724.9365,414.2031" style="stroke:#2C3E50;stroke-width:1;"/><line style="stroke:#2C3E50;stroke-width:1;" x1="493.2368" x2="726.9365" y1="414.2031" y2="414.2031"/><text fill="#000000" font-family="Arial" font-size="13" lengthAdjust="spacing" textLength="215.6997" x="500.2368" y="409.1372">Auto-anonymize above threshold</text></g><g><line style="stroke:#2C3E50;stroke-width:1;" x1="732.9365" x2="774.9365" y1="450.3359" y2="450.3359"/><line style="stroke:#2C3E50;stroke-width:1;" x1="774.9365" x2="774.9365" y1="450.3359" y2="463.3359"/><line style="stroke:#2C3E50;stroke-width:1;" x1="733.9365" x2="774.9365" y1="463.3359" y2="463.3359"/><polygon fill="#2C3E50" points="743.9365,459.3359,733.9365,463.3359,743.9365,467.3359,739.9365,463.3359" style="stroke:#2C3E50;stroke-width:1;"/><text fill="#000000" font-family="Arial" font-size="13" lengthAdjust="spacing" textLength="131.4409" x="739.9365" y="445.27">Replace with tokens</text></g><g><polygon fill="#2C3E50" points="1061.6846,488.4688,1071.6846,492.4688,1061.6846,496.4688,1065.6846,492.4688" style="stroke:#2C3E50;stroke-width:1;"/><line style="stroke:#2C3E50;stroke-width:1;" x1="732.9365" x2="1067.6846" y1="492.4688" y2="492.4688"/><text fill="#000000" font-family="Arial" font-size="13" lengthAdjust="spacing" textLength="167.8511" x="739.9365" y="487.4028">Store anonymization map</text></g><path d="M674.2271,507.4688 L743.6782,507.4688 L743.6782,514.6016 L733.6782,524.6016 L674.2271,524.6016 L674.2271,507.4688 " fill="#EEEEEE" style="stroke:#000000;stroke-width:1.5;"/><rect fill="#FFFFFF" fill-opacity="0.00000" height="75.3984" style="stroke:#000000;stroke-width:1.5;" width="357.3867" x="674.2271" y="507.4688"/><text fill="#000000" font-family="Arial" font-size="13" font-weight="bold" lengthAdjust="spacing" textLength="24.4512" x="689.2271" y="520.5356">opt</text><text fill="#000000" font-family="Arial" font-size="11" font-weight="bold" lengthAdjust="spacing" textLength="151.1533" x="758.6782" y="519.6792">[Secondary Verification]</text><g><polygon fill="#2C3E50" points="894.6299,541.7344,904.6299,545.7344,894.6299,549.7344,898.6299,545.7344" style="stroke:#2C3E50;stroke-width:1;"/><line style="stroke:#2C3E50;stroke-width:1;" x1="732.9365" x2="900.6299" y1="545.7344" y2="545.7344"/><text fill="#000000" font-family="Arial" font-size="13" lengthAdjust="spacing" textLength="131.8408" x="739.9365" y="540.6685">Check for missed PII</text></g><g><polygon fill="#2C3E50" points="743.9365,570.8672,733.9365,574.8672,743.9365,578.8672,739.9365,574.8672" style="stroke:#2C3E50;stroke-width:1;"/><line style="stroke:#2C3E50;stroke-width:1;" x1="737.9365" x2="905.6299" y1="574.8672" y2="574.8672"/><text fill="#000000" font-family="Arial" font-size="13" lengthAdjust="spacing" textLength="122.021" x="749.9365" y="569.8013">Verification results</text></g><g><polygon fill="#2C3E50" points="59.2646,607,49.2646,611,59.2646,615,55.2646,611" style="stroke:#2C3E50;stroke-width:1;"/><line style="stroke:#2C3E50;stroke-width:1;" x1="53.2646" x2="731.9365" y1="611" y2="611"/><text fill="#000000" font-family="Arial" font-size="13" lengthAdjust="spacing" textLength="214.0112" x="65.2646" y="605.9341">Generate anonymized document</text></g><!--SRC=[VLJBRjim4BphAnRk8Ut1GFgwv510jPF0GDCOJjhxMbp9X2MkGAxyoDTtISaF0KLkfcOuEpDQEMojQz5Z0siijfNdpfaPr-n1FBgW43d9mfcrGMVstegGWnBhG5UOeHAxMXxOoMzi279liRx2S-zvtuj_-3BxUl_zzWhyoOSb6cDT1Tzki-m6vbHQHw2esCAsw2HaLmUOpBde6dKt0GnWk1YZhtGGk3zeYaBO9qx1RZScvOxTiR5lA9OTvCj5uc5hnxJbOg5sXA8IVCmh7GgVF_LpXyV_rwL-CEhnFSNdDix76aRIE_AsF6O61TSO22OlL7IUu1TN2Q-vIZqDDS3ISq4XQ8EPjW7J7oamtC5Bjswin8eICKkF5TQSYWuTWMXXKUzYJJrbaQFKKqpbvshq-4Oztx4GU5jj1BYyb04m7JJWSRvSJGEvOCNk2AmhES6vEgrSj5XQGwuWs5FK2GcTeL35NXjCVkJOKiZ86OW3eylHcykm5dX2rsc5Jsn89U1YEIPLTYgYgYX8EfulXyHE36LE_eJXfNNwG- -iQ6Tf3uKkljvDt8HSLFEszQpHJXJIhmBoJhZH4EPTGv4rFRaXm7NKaOsdiE7QnC1PTd8sN5bHMsDioye6XBVQx9cY6n5JwWmQPuG6szZQUT7-njsoHTyUjmAwM-mC-kCOkgwctqSTCDjGiOLIapGs18sehoWn1yR5xBKMQ2hzTmXzgXjuiD78SoTj9-S4SN7lu94SUItl749ddBRt7m00]--></g></svg>