<svg xmlns="http://www.w3.org/2000/svg" xmlns:xlink="http://www.w3.org/1999/xlink" contentStyleType="text/css" data-diagram-type="SEQUENCE" height="670px" preserveAspectRatio="none" style="width:1188px;height:670px;" version="1.1" viewBox="0 0 1188 670" width="1188px" zoomAndPan="magnify"><defs/><g><rect fill="#FFFFFF" fill-opacity="0.00000" height="148.4688" style="stroke:#000000;stroke-width:1.5;" width="781.5913" x="400.0742" y="237.0938"/><rect fill="#FFFFFF" fill-opacity="0.00000" height="75.3984" style="stroke:#000000;stroke-width:1.5;" width="357.3867" x="674.2271" y="470.8281"/><g><title>Document</title><rect fill="#FFFFFF" fill-opacity="0.00000" height="525.0625" width="8" x="44.2646" y="67.2969"/><line style="stroke:#181818;stroke-width:0.5;stroke-dasharray:5.0,5.0;" x1="48" x2="48" y1="67.2969" y2="592.3594"/></g><g><title>Text Extractor</title><rect fill="#FFFFFF" fill-opacity="0.00000" height="525.0625" width="8" x="184.103" y="67.2969"/><line style="stroke:#181818;stroke-width:0.5;stroke-dasharray:5.0,5.0;" x1="187.1768" x2="187.1768" y1="67.2969" y2="592.3594"/></g><g><title>Anonymization API</title><rect fill="#FFFFFF" fill-opacity="0.00000" height="525.0625" width="8" x="323.5518" y="67.2969"/><line style="stroke:#181818;stroke-width:0.5;stroke-dasharray:5.0,5.0;" x1="327.0293" x2="327.0293" y1="67.2969" y2="592.3594"/></g><g><title>PII Detector (Agent 1)</title><rect fill="#FFFFFF" fill-opacity="0.00000" height="525.0625" width="8" x="489.2368" y="67.2969"/><line style="stroke:#181818;stroke-width:0.5;stroke-dasharray:5.0,5.0;" x1="493.0742" x2="493.0742" y1="67.2969" y2="592.3594"/></g><g><title>Anonymizer</title><rect fill="#FFFFFF" fill-opacity="0.00000" height="525.0625" width="8" x="728.9365" y="67.2969"/><line style="stroke:#181818;stroke-width:0.5;stroke-dasharray:5.0,5.0;" x1="732.2271" x2="732.2271" y1="67.2969" y2="592.3594"/></g><g><title>PII Detector (Optional Agent 1)</title><rect fill="#FFFFFF" fill-opacity="0.00000" height="525.0625" width="8" x="902.6299" y="67.2969"/><line style="stroke:#181818;stroke-width:0.5;stroke-dasharray:5.0,5.0;" x1="905.646" x2="905.646" y1="67.2969" y2="592.3594"/></g><g><title>Secure Log</title><rect fill="#FFFFFF" fill-opacity="0.00000" height="525.0625" width="8" x="1069.6846" y="67.2969"/><line style="stroke:#181818;stroke-width:0.5;stroke-dasharray:5.0,5.0;" x1="1073.6138" x2="1073.6138" y1="67.2969" y2="592.3594"/></g><g><title>User</title><rect fill="#FFFFFF" fill-opacity="0.00000" height="525.0625" width="8" x="1144.7104" y="67.2969"/><line style="stroke:#181818;stroke-width:0.5;stroke-dasharray:5.0,5.0;" x1="1147.7554" x2="1147.7554" y1="67.2969" y2="592.3594"/></g><g><rect fill="#E2E2F0" height="30.2969" rx="2.5" ry="2.5" style="stroke:#181818;stroke-width:0.5;" width="86.5293" x="5" y="36"/><text fill="#000000" font-family="Arial" font-size="14" lengthAdjust="spacing" textLength="72.5293" x="12" y="55.9951">Document</text></g><g><rect fill="#E2E2F0" height="30.2969" rx="2.5" ry="2.5" style="stroke:#181818;stroke-width:0.5;" width="86.5293" x="5" y="591.3594"/><text fill="#000000" font-family="Arial" font-size="14" lengthAdjust="spacing" textLength="72.5293" x="12" y="611.3545">Document</text></g><g><rect fill="#E2E2F0" height="30.2969" rx="2.5" ry="2.5" style="stroke:#181818;stroke-width:0.5;" width="113.8525" x="131.1768" y="36"/><text fill="#000000" font-family="Arial" font-size="14" lengthAdjust="spacing" textLength="99.8525" x="138.1768" y="55.9951">Text Extractor</text></g><g><rect fill="#E2E2F0" height="30.2969" rx="2.5" ry="2.5" style="stroke:#181818;stroke-width:0.5;" width="113.8525" x="131.1768" y="591.3594"/><text fill="#000000" font-family="Arial" font-size="14" lengthAdjust="spacing" textLength="99.8525" x="138.1768" y="611.3545">Text Extractor</text></g><g><rect fill="#E2E2F0" height="30.2969" rx="2.5" ry="2.5" style="stroke:#181818;stroke-width:0.5;" width="145.0449" x="255.0293" y="36"/><text fill="#000000" font-family="Arial" font-size="14" lengthAdjust="spacing" textLength="131.0449" x="262.0293" y="55.9951">Anonymization API</text></g><g><rect fill="#E2E2F0" height="30.2969" rx="2.5" ry="2.5" style="stroke:#181818;stroke-width:0.5;" width="145.0449" x="255.0293" y="591.3594"/><text fill="#000000" font-family="Arial" font-size="14" lengthAdjust="spacing" textLength="131.0449" x="262.0293" y="611.3545">Anonymization API</text></g><g><rect fill="#E2E2F0" height="30.2969" rx="2.5" ry="2.5" style="stroke:#181818;stroke-width:0.5;" width="166.3252" x="410.0742" y="36"/><text fill="#000000" font-family="Arial" font-size="14" lengthAdjust="spacing" textLength="152.3252" x="417.0742" y="55.9951">PII Detector (Agent 1)</text></g><g><rect fill="#E2E2F0" height="30.2969" rx="2.5" ry="2.5" style="stroke:#181818;stroke-width:0.5;" width="166.3252" x="410.0742" y="591.3594"/><text fill="#000000" font-family="Arial" font-size="14" lengthAdjust="spacing" textLength="152.3252" x="417.0742" y="611.3545">PII Detector (Agent 1)</text></g><g><rect fill="#E2E2F0" height="30.2969" rx="2.5" ry="2.5" style="stroke:#181818;stroke-width:0.5;" width="97.4189" x="684.2271" y="36"/><text fill="#000000" font-family="Arial" font-size="14" lengthAdjust="spacing" textLength="83.4189" x="691.2271" y="55.9951">Anonymizer</text></g><g><rect fill="#E2E2F0" height="30.2969" rx="2.5" ry="2.5" style="stroke:#181818;stroke-width:0.5;" width="97.4189" x="684.2271" y="591.3594"/><text fill="#000000" font-family="Arial" font-size="14" lengthAdjust="spacing" textLength="83.4189" x="691.2271" y="611.3545">Anonymizer</text></g><g><rect fill="#E2E2F0" height="30.2969" rx="2.5" ry="2.5" style="stroke:#181818;stroke-width:0.5;" width="229.9678" x="791.646" y="36"/><text fill="#000000" font-family="Arial" font-size="14" lengthAdjust="spacing" textLength="215.9678" x="798.646" y="55.9951">PII Detector (Optional Agent 1)</text></g><g><rect fill="#E2E2F0" height="30.2969" rx="2.5" ry="2.5" style="stroke:#181818;stroke-width:0.5;" width="229.9678" x="791.646" y="591.3594"/><text fill="#000000" font-family="Arial" font-size="14" lengthAdjust="spacing" textLength="215.9678" x="798.646" y="611.3545">PII Detector (Optional Agent 1)</text></g><g><text fill="#000000" font-family="Arial" font-size="14" lengthAdjust="spacing" textLength="78.1416" x="1031.6138" y="63.9951">Secure Log</text><path d="M1055.6846,15 C1055.6846,5 1073.6846,5 1073.6846,5 C1073.6846,5 1091.6846,5 1091.6846,15 L1091.6846,41 C1091.6846,51 1073.6846,51 1073.6846,51 C1073.6846,51 1055.6846,51 1055.6846,41 L1055.6846,15 " fill="#E2E2F0" style="stroke:#181818;stroke-width:1.5;"/><path d="M1055.6846,15 C1055.6846,25 1073.6846,25 1073.6846,25 C1073.6846,25 1091.6846,25 1091.6846,15 " fill="#FFFFFF" fill-opacity="0.00000" style="stroke:#181818;stroke-width:1.5;"/></g><g><text fill="#000000" font-family="Arial" font-size="14" lengthAdjust="spacing" textLength="78.1416" x="1031.6138" y="604.3545">Secure Log</text><path d="M1055.6846,617.6563 C1055.6846,607.6563 1073.6846,607.6563 1073.6846,607.6563 C1073.6846,607.6563 1091.6846,607.6563 1091.6846,617.6563 L1091.6846,643.6563 C1091.6846,653.6563 1073.6846,653.6563 1073.6846,653.6563 C1073.6846,653.6563 1055.6846,653.6563 1055.6846,643.6563 L1055.6846,617.6563 " fill="#E2E2F0" style="stroke:#181818;stroke-width:1.5;"/><path d="M1055.6846,617.6563 C1055.6846,627.6563 1073.6846,627.6563 1073.6846,627.6563 C1073.6846,627.6563 1091.6846,627.6563 1091.6846,617.6563 " fill="#FFFFFF" fill-opacity="0.00000" style="stroke:#181818;stroke-width:1.5;"/></g><g><rect fill="#E2E2F0" height="30.2969" rx="2.5" ry="2.5" style="stroke:#181818;stroke-width:0.5;" width="45.9102" x="1125.7554" y="36"/><text fill="#000000" font-family="Arial" font-size="14" lengthAdjust="spacing" textLength="31.9102" x="1132.7554" y="55.9951">User</text></g><g><rect fill="#E2E2F0" height="30.2969" rx="2.5" ry="2.5" style="stroke:#181818;stroke-width:0.5;" width="45.9102" x="1125.7554" y="591.3594"/><text fill="#000000" font-family="Arial" font-size="14" lengthAdjust="spacing" textLength="31.9102" x="1132.7554" y="611.3545">User</text></g><g><polygon fill="#2C3E50" points="176.103,94.4297,186.103,98.4297,176.103,102.4297,180.103,98.4297" style="stroke:#2C3E50;stroke-width:1;"/><line style="stroke:#2C3E50;stroke-width:1;" x1="48.2646" x2="182.103" y1="98.4297" y2="98.4297"/><text fill="#000000" font-family="Arial" font-size="13" lengthAdjust="spacing" textLength="115.8384" x="55.2646" y="93.3638">Submit document</text></g><g><polygon fill="#2C3E50" points="315.5518,123.5625,325.5518,127.5625,315.5518,131.5625,319.5518,127.5625" style="stroke:#2C3E50;stroke-width:1;"/><line style="stroke:#2C3E50;stroke-width:1;" x1="188.103" x2="321.5518" y1="127.5625" y2="127.5625"/><text fill="#000000" font-family="Arial" font-size="13" lengthAdjust="spacing" textLength="76.5781" x="195.103" y="122.4966">Extract text</text></g><g><polygon fill="#2C3E50" points="481.2368,152.6953,491.2368,156.6953,481.2368,160.6953,485.2368,156.6953" style="stroke:#2C3E50;stroke-width:1;"/><line style="stroke:#2C3E50;stroke-width:1;" x1="327.5518" x2="487.2368" y1="156.6953" y2="156.6953"/><text fill="#000000" font-family="Arial" font-size="13" lengthAdjust="spacing" textLength="81.2437" x="334.5518" y="151.6294">Analyze text</text></g><path d="M498,169.6953 L498,224.6953 L703,224.6953 L703,179.6953 L693,169.6953 L498,169.6953 " fill="#FEFFDD" style="stroke:#181818;stroke-width:0.5;"/><path d="M693,169.6953 L693,179.6953 L703,179.6953 L693,169.6953 " fill="#FEFFDD" style="stroke:#181818;stroke-width:0.5;"/><text fill="#000000" font-family="Arial" font-size="13" lengthAdjust="spacing" textLength="184.2598" x="504" y="186.7622">- Detect GDPR-sensitive info</text><text fill="#000000" font-family="Arial" font-size="13" lengthAdjust="spacing" textLength="181.397" x="504" y="201.895">- Assign confidence weights</text><text fill="#000000" font-family="Arial" font-size="13" lengthAdjust="spacing" textLength="138.5313" x="504" y="217.0278">- Categorize PII types</text><path d="M400.0742,237.0938 L464.5171,237.0938 L464.5171,244.2266 L454.5171,254.2266 L400.0742,254.2266 L400.0742,237.0938 " fill="#EEEEEE" style="stroke:#000000;stroke-width:1.5;"/><rect fill="#FFFFFF" fill-opacity="0.00000" height="148.4688" style="stroke:#000000;stroke-width:1.5;" width="781.5913" x="400.0742" y="237.0938"/><text fill="#000000" font-family="Arial" font-size="13" font-weight="bold" lengthAdjust="spacing" textLength="19.4429" x="415.0742" y="250.1606">alt</text><text fill="#000000" font-family="Arial" font-size="11" font-weight="bold" lengthAdjust="spacing" textLength="92.9468" x="479.5171" y="249.3042">[Manual Mode]</text><g><polygon fill="#2C3E50" points="720.9365,271.3594,730.9365,275.3594,720.9365,279.3594,724.9365,275.3594" style="stroke:#2C3E50;stroke-width:1;"/><line style="stroke:#2C3E50;stroke-width:1;" x1="493.2368" x2="726.9365" y1="275.3594" y2="275.3594"/><text fill="#000000" font-family="Arial" font-size="13" lengthAdjust="spacing" textLength="159.8276" x="500.2368" y="270.2935">Suggest anonymizations</text></g><g><polygon fill="#2C3E50" points="1136.7104,300.4922,1146.7104,304.4922,1136.7104,308.4922,1140.7104,304.4922" style="stroke:#2C3E50;stroke-width:1;"/><line style="stroke:#2C3E50;stroke-width:1;" x1="732.9365" x2="1142.7104" y1="304.4922" y2="304.4922"/><text fill="#000000" font-family="Arial" font-size="13" lengthAdjust="spacing" textLength="105.7139" x="739.9365" y="299.4263">Review changes</text></g><g><polygon fill="#2C3E50" points="743.9365,329.625,733.9365,333.625,743.9365,337.625,739.9365,333.625" style="stroke:#2C3E50;stroke-width:1;"/><line style="stroke:#2C3E50;stroke-width:1;" x1="737.9365" x2="1147.7104" y1="333.625" y2="333.625"/><text fill="#000000" font-family="Arial" font-size="13" lengthAdjust="spacing" textLength="113.1343" x="749.9365" y="328.5591">Approve changes</text></g><line style="stroke:#000000;stroke-width:1;stroke-dasharray:2.0,2.0;" x1="400.0742" x2="1181.6655" y1="342.625" y2="342.625"/><text fill="#000000" font-family="Arial" font-size="11" font-weight="bold" lengthAdjust="spacing" textLength="116.3594" x="405.0742" y="352.8354">[Automated Mode]</text><g><polygon fill="#2C3E50" points="720.9365,373.5625,730.9365,377.5625,720.9365,381.5625,724.9365,377.5625" style="stroke:#2C3E50;stroke-width:1;"/><line style="stroke:#2C3E50;stroke-width:1;" x1="493.2368" x2="726.9365" y1="377.5625" y2="377.5625"/><text fill="#000000" font-family="Arial" font-size="13" lengthAdjust="spacing" textLength="215.6997" x="500.2368" y="372.4966">Auto-anonymize above threshold</text></g><g><line style="stroke:#2C3E50;stroke-width:1;" x1="732.9365" x2="774.9365" y1="413.6953" y2="413.6953"/><line style="stroke:#2C3E50;stroke-width:1;" x1="774.9365" x2="774.9365" y1="413.6953" y2="426.6953"/><line style="stroke:#2C3E50;stroke-width:1;" x1="733.9365" x2="774.9365" y1="426.6953" y2="426.6953"/><polygon fill="#2C3E50" points="743.9365,422.6953,733.9365,426.6953,743.9365,430.6953,739.9365,426.6953" style="stroke:#2C3E50;stroke-width:1;"/><text fill="#000000" font-family="Arial" font-size="13" lengthAdjust="spacing" textLength="131.4409" x="739.9365" y="408.6294">Replace with tokens</text></g><g><polygon fill="#2C3E50" points="1061.6846,451.8281,1071.6846,455.8281,1061.6846,459.8281,1065.6846,455.8281" style="stroke:#2C3E50;stroke-width:1;"/><line style="stroke:#2C3E50;stroke-width:1;" x1="732.9365" x2="1067.6846" y1="455.8281" y2="455.8281"/><text fill="#000000" font-family="Arial" font-size="13" lengthAdjust="spacing" textLength="167.8511" x="739.9365" y="450.7622">Store anonymization map</text></g><path d="M674.2271,470.8281 L743.6782,470.8281 L743.6782,477.9609 L733.6782,487.9609 L674.2271,487.9609 L674.2271,470.8281 " fill="#EEEEEE" style="stroke:#000000;stroke-width:1.5;"/><rect fill="#FFFFFF" fill-opacity="0.00000" height="75.3984" style="stroke:#000000;stroke-width:1.5;" width="357.3867" x="674.2271" y="470.8281"/><text fill="#000000" font-family="Arial" font-size="13" font-weight="bold" lengthAdjust="spacing" textLength="24.4512" x="689.2271" y="483.895">opt</text><text fill="#000000" font-family="Arial" font-size="11" font-weight="bold" lengthAdjust="spacing" textLength="151.1533" x="758.6782" y="483.0386">[Secondary Verification]</text><g><polygon fill="#2C3E50" points="894.6299,505.0938,904.6299,509.0938,894.6299,513.0938,898.6299,509.0938" style="stroke:#2C3E50;stroke-width:1;"/><line style="stroke:#2C3E50;stroke-width:1;" x1="732.9365" x2="900.6299" y1="509.0938" y2="509.0938"/><text fill="#000000" font-family="Arial" font-size="13" lengthAdjust="spacing" textLength="131.8408" x="739.9365" y="504.0278">Check for missed PII</text></g><g><polygon fill="#2C3E50" points="743.9365,534.2266,733.9365,538.2266,743.9365,542.2266,739.9365,538.2266" style="stroke:#2C3E50;stroke-width:1;"/><line style="stroke:#2C3E50;stroke-width:1;" x1="737.9365" x2="905.6299" y1="538.2266" y2="538.2266"/><text fill="#000000" font-family="Arial" font-size="13" lengthAdjust="spacing" textLength="122.021" x="749.9365" y="533.1606">Verification results</text></g><g><polygon fill="#2C3E50" points="59.2646,570.3594,49.2646,574.3594,59.2646,578.3594,55.2646,574.3594" style="stroke:#2C3E50;stroke-width:1;"/><line style="stroke:#2C3E50;stroke-width:1;" x1="53.2646" x2="731.9365" y1="574.3594" y2="574.3594"/><text fill="#000000" font-family="Arial" font-size="13" lengthAdjust="spacing" textLength="214.0112" x="65.2646" y="569.2935">Generate anonymized document</text></g><!--SRC=[VLJBRjim4BphAnRk8Ut1GFgwv510jPF0GDCOJjhxMbf9X2MkGAxyoDTtISco1HIvcPhXxCnmORypjaM73MmnsvMEEvilk6O7uj1wXSXAuaTMJWLsjJombT_O4AJEO7s5fyxneHVuy6NnzVxxxHNuauzhp7DZI_XscoGtiAJ2M095nMIcHIi-kJh0RCbPrwY36Q27dBCf-af7WVkZEis4NUHaRFTJKchPdXhpXcBOGhfUHHwsPafRhrPgHoWemSUqrA7m-LC_T_ZyVrtg1wCUtrDyRiDyh64YlITdYbEIe-0MFS7iXRBE4VpYCk8rbx6deGPOEyx8UsqmqJPW_YC6XZjuwRQDaL1H92RniyAQKz6X8n0jBEXThAcd972KUewf_5IDdjwevriM0cVAIe2BIna0yq437fVhpToJzKRCdi3OWYESgjFI1ek5oSbc10SAEZwY2nGgsMc3qO-SMl89sHp2mE1oyd89rW9FQ3kjy8bpKWcuM0v9bHsBA4lo4e_ZPH_PaQ7CsHy_F5gdF_JEXlQ63f1LQFLkv4RaefgshMEDTgPGhO-LTiADXiZVDHHOyxCR0jm67QaS-OhhF0HEahEpuSg6sXf3MqOg4DvfioD5DoAar1aqpGWDjg6rST7-XjqoMTyUjmAwMsnpTASfT5rDluywO55HjeD2apJ6UuseJnIP0-DYzbeBD9N-E_W-rGqyc63akPEsap51MDmxU2HBJiiRG-YCy_R-0m00]--></g></svg>