<svg xmlns="http://www.w3.org/2000/svg" xmlns:xlink="http://www.w3.org/1999/xlink" contentStyleType="text/css" data-diagram-type="ACTIVITY" height="1328px" preserveAspectRatio="none" style="width:2080px;height:1328px;" version="1.1" viewBox="0 0 2080 1328" width="2080px" zoomAndPan="magnify"><title>Document Workflow Automation</title><defs/><g><rect fill="#FFFFCC" height="26.6406" rx="2.5" ry="2.5" style="stroke:#FFDD88;stroke-width:3;" width="2069.2344" x="5" y="5"/><text fill="#000000" font-family="monospace" font-size="10" lengthAdjust="spacing" textLength="355.21" x="10" y="20">Please&#160;use&#160;'!option&#160;handwritten&#160;true'&#160;to&#160;enable&#160;handwritten</text><text fill="#000000" font-family="Arial" font-size="14" font-weight="bold" lengthAdjust="spacing" textLength="256.9355" x="902.6494" y="69.6357">Document Workflow Automation</text><rect fill="#FFFFFF" fill-opacity="0.00000" height="20.9531" style="stroke:#FFFFFF00;stroke-width:1;" width="2032.2344" x="15" y="86.6826"/><ellipse cx="140.9717" cy="122.6357" fill="#222222" rx="10" ry="10" style="stroke:#222222;stroke-width:1;"/><rect fill="#F5F5F5" height="33.9688" rx="12.5" ry="12.5" style="stroke:#666666;stroke-width:0.5;" width="239.9434" x="21" y="152.6357"/><text fill="#000000" font-family="Arial" font-size="12" lengthAdjust="spacing" textLength="219.9434" x="31" y="173.7744">Document Created/Updated/Deleted</text><rect fill="#F5F5F5" height="33.9688" rx="12.5" ry="12.5" style="stroke:#666666;stroke-width:0.5;" width="130.9004" x="75.5215" y="206.6045"/><text fill="#000000" font-family="Arial" font-size="12" lengthAdjust="spacing" textLength="110.9004" x="85.5215" y="227.7432">Document Tagged</text><rect fill="#F5F5F5" height="33.9688" rx="12.5" ry="12.5" style="stroke:#666666;stroke-width:0.5;" width="123.7754" x="79.084" y="1240.499"/><text fill="#000000" font-family="Arial" font-size="12" lengthAdjust="spacing" textLength="103.7754" x="89.084" y="1261.6377">Document Ready</text><ellipse cx="140.9717" cy="1305.4678" fill="#FFFFFF" fill-opacity="0.00000" rx="11" ry="11" style="stroke:#222222;stroke-width:1;"/><ellipse cx="140.9717" cy="1305.4678" fill="#222222" rx="6" ry="6" style="stroke:#222222;stroke-width:1;"/><line style="stroke:#000000;stroke-width:1.5;" x1="15" x2="15" y1="86.6826" y2="1316.4678"/><polygon fill="#F5F5F5" points="630.5992,260.5732,735.0509,260.5732,747.0509,272.5732,735.0509,284.5732,630.5992,284.5732,618.5992,272.5732,630.5992,260.5732" style="stroke:#666666;stroke-width:0.5;"/><text fill="#000000" font-family="Arial" font-size="11" lengthAdjust="spacing" textLength="104.4517" x="630.5992" y="276.3813">Monitor Triggered?</text><text fill="#000000" font-family="Arial" font-size="11" lengthAdjust="spacing" textLength="19.0083" x="599.5909" y="269.979">yes</text><text fill="#000000" font-family="Arial" font-size="11" lengthAdjust="spacing" textLength="13.7017" x="747.0509" y="269.979">no</text><rect fill="#F5F5F5" height="33.9688" rx="12.5" ry="12.5" style="stroke:#666666;stroke-width:0.5;" width="137.123" x="448.207" y="304.5732"/><text fill="#000000" font-family="Arial" font-size="12" lengthAdjust="spacing" textLength="117.123" x="458.207" y="325.7119">Check Trigger Type</text><rect fill="#555555" height="6" rx="2.5" ry="2.5" style="stroke:#555555;stroke-width:1;" width="495.373" x="270.9434" y="358.542"/><rect fill="#F5F5F5" height="33.9688" rx="12.5" ry="12.5" style="stroke:#666666;stroke-width:0.5;" width="155.2637" x="282.9434" y="384.542"/><text fill="#000000" font-family="Arial" font-size="12" lengthAdjust="spacing" textLength="135.2637" x="292.9434" y="405.6807">Check Document Tags</text><rect fill="#F5F5F5" height="33.9688" rx="12.5" ry="12.5" style="stroke:#666666;stroke-width:0.5;" width="127.3027" x="452.2559" y="384.542"/><text fill="#000000" font-family="Arial" font-size="12" lengthAdjust="spacing" textLength="107.3027" x="462.2559" y="405.6807">Validate File Type</text><rect fill="#F5F5F5" height="33.9688" rx="12.5" ry="12.5" style="stroke:#666666;stroke-width:0.5;" width="156.9863" x="595.3301" y="384.542"/><text fill="#000000" font-family="Arial" font-size="12" lengthAdjust="spacing" textLength="136.9863" x="605.3301" y="405.6807">Check Source Location</text><rect fill="#555555" height="6" rx="2.5" ry="2.5" style="stroke:#555555;stroke-width:1;" width="495.373" x="270.9434" y="438.5107"/><polygon fill="#F5F5F5" points="682.825,1196.499,694.825,1208.499,682.825,1220.499,670.825,1208.499,682.825,1196.499" style="stroke:#666666;stroke-width:0.5;"/><line style="stroke:#000000;stroke-width:1.5;" x1="264.9434" x2="264.9434" y1="86.6826" y2="1316.4678"/><polygon fill="#F5F5F5" points="1188.5045,464.5107,1305.4547,464.5107,1317.4547,476.5107,1305.4547,488.5107,1188.5045,488.5107,1176.5045,476.5107,1188.5045,464.5107" style="stroke:#666666;stroke-width:0.5;"/><text fill="#000000" font-family="Arial" font-size="11" lengthAdjust="spacing" textLength="116.9502" x="1188.5045" y="480.3188">Requires Processing?</text><text fill="#000000" font-family="Arial" font-size="11" lengthAdjust="spacing" textLength="19.0083" x="1157.4962" y="473.9165">yes</text><text fill="#000000" font-family="Arial" font-size="11" lengthAdjust="spacing" textLength="13.7017" x="1317.4547" y="473.9165">no</text><rect fill="#555555" height="6" rx="2.5" ry="2.5" style="stroke:#555555;stroke-width:1;" width="587.196" x="776.3164" y="508.5107"/><rect fill="#F5F5F5" height="33.9688" rx="12.5" ry="12.5" style="stroke:#666666;stroke-width:0.5;" width="87.1016" x="830.7734" y="534.5107"/><text fill="#000000" font-family="Arial" font-size="12" lengthAdjust="spacing" textLength="67.1016" x="840.7734" y="555.6494">GDPR Scan</text><rect fill="#F5F5F5" height="33.9688" rx="12.5" ry="12.5" style="stroke:#666666;stroke-width:0.5;" width="159.3359" x="794.6563" y="651.8818"/><text fill="#000000" font-family="Arial" font-size="12" lengthAdjust="spacing" textLength="139.3359" x="804.6563" y="673.0205">Anonymization Process</text><rect fill="#F5F5F5" height="33.9688" rx="12.5" ry="12.5" style="stroke:#666666;stroke-width:0.5;" width="172.0156" x="788.3164" y="720.8506"/><text fill="#000000" font-family="Arial" font-size="12" lengthAdjust="spacing" textLength="152.0156" x="798.3164" y="741.9893">Generate New Document</text><polygon fill="#F5F5F5" points="807.1023,603.4795,941.5461,603.4795,953.5461,615.4795,941.5461,627.4795,807.1023,627.4795,795.1023,615.4795,807.1023,603.4795" style="stroke:#666666;stroke-width:0.5;"/><text fill="#000000" font-family="Arial" font-size="11" lengthAdjust="spacing" textLength="19.0083" x="878.3242" y="637.6899">yes</text><text fill="#000000" font-family="Arial" font-size="11" lengthAdjust="spacing" textLength="134.4438" x="807.1023" y="619.2876">Contains Personal Data?</text><polygon fill="#F5F5F5" points="874.3242,779.2217,886.3242,791.2217,874.3242,803.2217,862.3242,791.2217,874.3242,779.2217" style="stroke:#666666;stroke-width:0.5;"/><rect fill="#F5F5F5" height="33.9688" rx="12.5" ry="12.5" style="stroke:#666666;stroke-width:0.5;" width="172.9297" x="984.332" y="568.9951"/><text fill="#000000" font-family="Arial" font-size="12" lengthAdjust="spacing" textLength="152.9297" x="994.332" y="590.1338">WCAG Compliance Check</text><rect fill="#F5F5F5" height="33.9688" rx="12.5" ry="12.5" style="stroke:#666666;stroke-width:0.5;" width="125.7031" x="1007.9453" y="686.3662"/><text fill="#000000" font-family="Arial" font-size="12" lengthAdjust="spacing" textLength="105.7031" x="1017.9453" y="707.5049">Tag with Warning</text><polygon fill="#F5F5F5" points="1026.8049,637.9639,1114.7888,637.9639,1126.7888,649.9639,1114.7888,661.9639,1026.8049,661.9639,1014.8049,649.9639,1026.8049,637.9639" style="stroke:#666666;stroke-width:0.5;"/><text fill="#000000" font-family="Arial" font-size="11" lengthAdjust="spacing" textLength="19.0083" x="1074.7969" y="672.1743">yes</text><text fill="#000000" font-family="Arial" font-size="11" lengthAdjust="spacing" textLength="87.9839" x="1026.8049" y="653.772">Non-Compliant?</text><polygon fill="#F5F5F5" points="1070.7969,744.7373,1082.7969,756.7373,1070.7969,768.7373,1058.7969,756.7373,1070.7969,744.7373" style="stroke:#666666;stroke-width:0.5;"/><rect fill="#F5F5F5" height="33.9688" rx="12.5" ry="12.5" style="stroke:#666666;stroke-width:0.5;" width="155.6504" x="1185.2617" y="568.9951"/><text fill="#000000" font-family="Arial" font-size="12" lengthAdjust="spacing" textLength="135.6504" x="1195.2617" y="590.1338">Language Level Check</text><rect fill="#F5F5F5" height="33.9688" rx="12.5" ry="12.5" style="stroke:#666666;stroke-width:0.5;" width="125.7031" x="1200.2354" y="686.3662"/><text fill="#000000" font-family="Arial" font-size="12" lengthAdjust="spacing" textLength="105.7031" x="1210.2354" y="707.5049">Tag with Warning</text><polygon fill="#F5F5F5" points="1200.6614,637.9639,1325.5125,637.9639,1337.5125,649.9639,1325.5125,661.9639,1200.6614,661.9639,1188.6614,649.9639,1200.6614,637.9639" style="stroke:#666666;stroke-width:0.5;"/><text fill="#000000" font-family="Arial" font-size="11" lengthAdjust="spacing" textLength="19.0083" x="1267.0869" y="672.1743">yes</text><text fill="#000000" font-family="Arial" font-size="11" lengthAdjust="spacing" textLength="124.8511" x="1200.6614" y="653.772">Below Required Level?</text><polygon fill="#F5F5F5" points="1263.0869,744.7373,1275.0869,756.7373,1263.0869,768.7373,1251.0869,756.7373,1263.0869,744.7373" style="stroke:#666666;stroke-width:0.5;"/><rect fill="#555555" height="6" rx="2.5" ry="2.5" style="stroke:#555555;stroke-width:1;" width="587.196" x="776.3164" y="823.2217"/><polygon fill="#F5F5F5" points="1246.9796,1162.499,1258.9796,1174.499,1246.9796,1186.499,1234.9796,1174.499,1246.9796,1162.499" style="stroke:#666666;stroke-width:0.5;"/><line style="stroke:#000000;stroke-width:1.5;" x1="770.3164" x2="770.3164" y1="86.6826" y2="1316.4678"/><rect fill="#F5F5F5" height="33.9688" rx="12.5" ry="12.5" style="stroke:#666666;stroke-width:0.5;" width="159.998" x="1375.2856" y="897.624"/><text fill="#000000" font-family="Arial" font-size="12" lengthAdjust="spacing" textLength="139.998" x="1385.2856" y="918.7627">Send Email Notification</text><rect fill="#F5F5F5" height="33.9688" rx="12.5" ry="12.5" style="stroke:#666666;stroke-width:0.5;" width="132.5879" x="1388.9907" y="966.5928"/><text fill="#000000" font-family="Arial" font-size="12" lengthAdjust="spacing" textLength="112.5879" x="1398.9907" y="987.7314">Update Dashboard</text><polygon fill="#F5F5F5" points="1395.5125,849.2217,1515.0569,849.2217,1527.0569,861.2217,1515.0569,873.2217,1395.5125,873.2217,1383.5125,861.2217,1395.5125,849.2217" style="stroke:#666666;stroke-width:0.5;"/><text fill="#000000" font-family="Arial" font-size="11" lengthAdjust="spacing" textLength="19.0083" x="1459.2847" y="883.4321">yes</text><text fill="#000000" font-family="Arial" font-size="11" lengthAdjust="spacing" textLength="119.5444" x="1395.5125" y="865.0298">Warnings Generated?</text><polygon fill="#F5F5F5" points="1455.2847,1020.5615,1467.2847,1032.5615,1455.2847,1044.5615,1443.2847,1032.5615,1455.2847,1020.5615" style="stroke:#666666;stroke-width:0.5;"/><line style="stroke:#000000;stroke-width:1.5;" x1="1368.5125" x2="1368.5125" y1="86.6826" y2="1316.4678"/><rect fill="#F5F5F5" height="33.9688" rx="12.5" ry="12.5" style="stroke:#666666;stroke-width:0.5;" width="168.0313" x="1581.3081" y="1064.5615"/><text fill="#000000" font-family="Arial" font-size="12" lengthAdjust="spacing" textLength="148.0313" x="1591.3081" y="1085.7002">Store Processing Results</text><rect fill="#F5F5F5" height="33.9688" rx="12.5" ry="12.5" style="stroke:#666666;stroke-width:0.5;" width="190.0801" x="1570.2837" y="1118.5303"/><text fill="#000000" font-family="Arial" font-size="12" lengthAdjust="spacing" textLength="170.0801" x="1580.2837" y="1139.6689">Update Document Metadata</text><rect fill="#F5F5F5" height="33.9688" rx="12.5" ry="12.5" style="stroke:#666666;stroke-width:0.5;" width="119.0645" x="1770.3638" y="508.5107"/><text fill="#000000" font-family="Arial" font-size="12" lengthAdjust="spacing" textLength="99.0645" x="1780.3638" y="529.6494">Log Skip Reason</text><rect fill="#F5F5F5" height="33.9688" rx="12.5" ry="12.5" style="stroke:#666666;stroke-width:0.5;" width="141.9453" x="1899.4282" y="304.5732"/><text fill="#000000" font-family="Arial" font-size="12" lengthAdjust="spacing" textLength="121.9453" x="1909.4282" y="325.7119">Continue Monitoring</text><line style="stroke:#000000;stroke-width:1.5;" x1="1564.2837" x2="1564.2837" y1="86.6826" y2="1316.4678"/><line style="stroke:#000000;stroke-width:1.5;" x1="2045.3735" x2="2045.3735" y1="86.6826" y2="1316.4678"/><line style="stroke:#666666;stroke-width:1;" x1="140.9717" x2="140.9717" y1="132.6357" y2="152.6357"/><polygon fill="#666666" points="136.9717,142.6357,140.9717,152.6357,144.9717,142.6357,140.9717,146.6357" style="stroke:#666666;stroke-width:1;"/><line style="stroke:#666666;stroke-width:1;" x1="140.9717" x2="140.9717" y1="186.6045" y2="206.6045"/><polygon fill="#666666" points="136.9717,196.6045,140.9717,206.6045,144.9717,196.6045,140.9717,200.6045" style="stroke:#666666;stroke-width:1;"/><line style="stroke:#666666;stroke-width:1;" x1="140.9717" x2="140.9717" y1="1274.4678" y2="1294.4678"/><polygon fill="#666666" points="136.9717,1284.4678,140.9717,1294.4678,144.9717,1284.4678,140.9717,1288.4678" style="stroke:#666666;stroke-width:1;"/><line style="stroke:#666666;stroke-width:1;" x1="360.5752" x2="360.5752" y1="364.542" y2="384.542"/><polygon fill="#666666" points="356.5752,374.542,360.5752,384.542,364.5752,374.542,360.5752,378.542" style="stroke:#666666;stroke-width:1;"/><line style="stroke:#666666;stroke-width:1;" x1="515.9072" x2="515.9072" y1="364.542" y2="384.542"/><polygon fill="#666666" points="511.9072,374.542,515.9072,384.542,519.9072,374.542,515.9072,378.542" style="stroke:#666666;stroke-width:1;"/><line style="stroke:#666666;stroke-width:1;" x1="673.8232" x2="673.8232" y1="364.542" y2="384.542"/><polygon fill="#666666" points="669.8232,374.542,673.8232,384.542,677.8232,374.542,673.8232,378.542" style="stroke:#666666;stroke-width:1;"/><line style="stroke:#666666;stroke-width:1;" x1="360.5752" x2="360.5752" y1="418.5107" y2="438.5107"/><polygon fill="#666666" points="356.5752,428.5107,360.5752,438.5107,364.5752,428.5107,360.5752,432.5107" style="stroke:#666666;stroke-width:1;"/><line style="stroke:#666666;stroke-width:1;" x1="515.9072" x2="515.9072" y1="418.5107" y2="438.5107"/><polygon fill="#666666" points="511.9072,428.5107,515.9072,438.5107,519.9072,428.5107,515.9072,432.5107" style="stroke:#666666;stroke-width:1;"/><line style="stroke:#666666;stroke-width:1;" x1="673.8232" x2="673.8232" y1="418.5107" y2="438.5107"/><polygon fill="#666666" points="669.8232,428.5107,673.8232,438.5107,677.8232,428.5107,673.8232,432.5107" style="stroke:#666666;stroke-width:1;"/><line style="stroke:#666666;stroke-width:1;" x1="516.7686" x2="516.7686" y1="338.542" y2="358.542"/><polygon fill="#666666" points="512.7686,348.542,516.7686,358.542,520.7686,348.542,516.7686,352.542" style="stroke:#666666;stroke-width:1;"/><line style="stroke:#666666;stroke-width:1;" x1="618.5992" x2="516.7686" y1="272.5732" y2="272.5732"/><line style="stroke:#666666;stroke-width:1;" x1="516.7686" x2="516.7686" y1="272.5732" y2="304.5732"/><polygon fill="#666666" points="512.7686,294.5732,516.7686,304.5732,520.7686,294.5732,516.7686,298.5732" style="stroke:#666666;stroke-width:1;"/><line style="stroke:#666666;stroke-width:1;" x1="874.3242" x2="874.3242" y1="685.8506" y2="720.8506"/><polygon fill="#666666" points="870.3242,710.8506,874.3242,720.8506,878.3242,710.8506,874.3242,714.8506" style="stroke:#666666;stroke-width:1;"/><line style="stroke:#666666;stroke-width:1;" x1="874.3242" x2="874.3242" y1="627.4795" y2="651.8818"/><polygon fill="#666666" points="870.3242,641.8818,874.3242,651.8818,878.3242,641.8818,874.3242,645.8818" style="stroke:#666666;stroke-width:1;"/><line style="stroke:#666666;stroke-width:1;" x1="953.5461" x2="970.332" y1="615.4795" y2="615.4795"/><polygon fill="#666666" points="966.332,693.3506,970.332,703.3506,974.332,693.3506,970.332,697.3506" style="stroke:#666666;stroke-width:1;"/><line style="stroke:#666666;stroke-width:1;" x1="970.332" x2="970.332" y1="615.4795" y2="791.2217"/><line style="stroke:#666666;stroke-width:1;" x1="970.332" x2="886.3242" y1="791.2217" y2="791.2217"/><polygon fill="#666666" points="896.3242,787.2217,886.3242,791.2217,896.3242,795.2217,892.3242,791.2217" style="stroke:#666666;stroke-width:1;"/><line style="stroke:#666666;stroke-width:1;" x1="874.3242" x2="874.3242" y1="754.8193" y2="779.2217"/><polygon fill="#666666" points="870.3242,769.2217,874.3242,779.2217,878.3242,769.2217,874.3242,773.2217" style="stroke:#666666;stroke-width:1;"/><line style="stroke:#666666;stroke-width:1;" x1="874.3242" x2="874.3242" y1="568.4795" y2="603.4795"/><polygon fill="#666666" points="870.3242,593.4795,874.3242,603.4795,878.3242,593.4795,874.3242,597.4795" style="stroke:#666666;stroke-width:1;"/><line style="stroke:#666666;stroke-width:1;" x1="1070.7969" x2="1070.7969" y1="661.9639" y2="686.3662"/><polygon fill="#666666" points="1066.7969,676.3662,1070.7969,686.3662,1074.7969,676.3662,1070.7969,680.3662" style="stroke:#666666;stroke-width:1;"/><line style="stroke:#666666;stroke-width:1;" x1="1126.7888" x2="1143.6484" y1="649.9639" y2="649.9639"/><polygon fill="#666666" points="1139.6484,693.3506,1143.6484,703.3506,1147.6484,693.3506,1143.6484,697.3506" style="stroke:#666666;stroke-width:1;"/><line style="stroke:#666666;stroke-width:1;" x1="1143.6484" x2="1143.6484" y1="649.9639" y2="756.7373"/><line style="stroke:#666666;stroke-width:1;" x1="1143.6484" x2="1082.7969" y1="756.7373" y2="756.7373"/><polygon fill="#666666" points="1092.7969,752.7373,1082.7969,756.7373,1092.7969,760.7373,1088.7969,756.7373" style="stroke:#666666;stroke-width:1;"/><line style="stroke:#666666;stroke-width:1;" x1="1070.7969" x2="1070.7969" y1="720.335" y2="744.7373"/><polygon fill="#666666" points="1066.7969,734.7373,1070.7969,744.7373,1074.7969,734.7373,1070.7969,738.7373" style="stroke:#666666;stroke-width:1;"/><line style="stroke:#666666;stroke-width:1;" x1="1070.7969" x2="1070.7969" y1="602.9639" y2="637.9639"/><polygon fill="#666666" points="1066.7969,627.9639,1070.7969,637.9639,1074.7969,627.9639,1070.7969,631.9639" style="stroke:#666666;stroke-width:1;"/><line style="stroke:#666666;stroke-width:1;" x1="1263.0869" x2="1263.0869" y1="661.9639" y2="686.3662"/><polygon fill="#666666" points="1259.0869,676.3662,1263.0869,686.3662,1267.0869,676.3662,1263.0869,680.3662" style="stroke:#666666;stroke-width:1;"/><line style="stroke:#666666;stroke-width:1;" x1="1337.5125" x2="1349.5125" y1="649.9639" y2="649.9639"/><polygon fill="#666666" points="1345.5125,693.3506,1349.5125,703.3506,1353.5125,693.3506,1349.5125,697.3506" style="stroke:#666666;stroke-width:1;"/><line style="stroke:#666666;stroke-width:1;" x1="1349.5125" x2="1349.5125" y1="649.9639" y2="756.7373"/><line style="stroke:#666666;stroke-width:1;" x1="1349.5125" x2="1275.0869" y1="756.7373" y2="756.7373"/><polygon fill="#666666" points="1285.0869,752.7373,1275.0869,756.7373,1285.0869,760.7373,1281.0869,756.7373" style="stroke:#666666;stroke-width:1;"/><line style="stroke:#666666;stroke-width:1;" x1="1263.0869" x2="1263.0869" y1="720.335" y2="744.7373"/><polygon fill="#666666" points="1259.0869,734.7373,1263.0869,744.7373,1267.0869,734.7373,1263.0869,738.7373" style="stroke:#666666;stroke-width:1;"/><line style="stroke:#666666;stroke-width:1;" x1="1263.0869" x2="1263.0869" y1="602.9639" y2="637.9639"/><polygon fill="#666666" points="1259.0869,627.9639,1263.0869,637.9639,1267.0869,627.9639,1263.0869,631.9639" style="stroke:#666666;stroke-width:1;"/><line style="stroke:#666666;stroke-width:1;" x1="874.3242" x2="874.3242" y1="514.5107" y2="534.5107"/><polygon fill="#666666" points="870.3242,524.5107,874.3242,534.5107,878.3242,524.5107,874.3242,528.5107" style="stroke:#666666;stroke-width:1;"/><line style="stroke:#666666;stroke-width:1;" x1="1070.7969" x2="1070.7969" y1="514.5107" y2="568.9951"/><polygon fill="#666666" points="1066.7969,558.9951,1070.7969,568.9951,1074.7969,558.9951,1070.7969,562.9951" style="stroke:#666666;stroke-width:1;"/><line style="stroke:#666666;stroke-width:1;" x1="1263.0869" x2="1263.0869" y1="514.5107" y2="568.9951"/><polygon fill="#666666" points="1259.0869,558.9951,1263.0869,568.9951,1267.0869,558.9951,1263.0869,562.9951" style="stroke:#666666;stroke-width:1;"/><line style="stroke:#666666;stroke-width:1;" x1="874.3242" x2="874.3242" y1="803.2217" y2="823.2217"/><polygon fill="#666666" points="870.3242,813.2217,874.3242,823.2217,878.3242,813.2217,874.3242,817.2217" style="stroke:#666666;stroke-width:1;"/><line style="stroke:#666666;stroke-width:1;" x1="1070.7969" x2="1070.7969" y1="768.7373" y2="823.2217"/><polygon fill="#666666" points="1066.7969,813.2217,1070.7969,823.2217,1074.7969,813.2217,1070.7969,817.2217" style="stroke:#666666;stroke-width:1;"/><line style="stroke:#666666;stroke-width:1;" x1="1263.0869" x2="1263.0869" y1="768.7373" y2="823.2217"/><polygon fill="#666666" points="1259.0869,813.2217,1263.0869,823.2217,1267.0869,813.2217,1263.0869,817.2217" style="stroke:#666666;stroke-width:1;"/><line style="stroke:#666666;stroke-width:1;" x1="1176.5045" x2="1050.9144" y1="476.5107" y2="476.5107"/><line style="stroke:#666666;stroke-width:1;" x1="1050.9144" x2="1050.9144" y1="476.5107" y2="508.5107"/><polygon fill="#666666" points="1046.9144,498.5107,1050.9144,508.5107,1054.9144,498.5107,1050.9144,502.5107" style="stroke:#666666;stroke-width:1;"/><line style="stroke:#666666;stroke-width:1;" x1="1455.2847" x2="1455.2847" y1="931.5928" y2="966.5928"/><polygon fill="#666666" points="1451.2847,956.5928,1455.2847,966.5928,1459.2847,956.5928,1455.2847,960.5928" style="stroke:#666666;stroke-width:1;"/><line style="stroke:#666666;stroke-width:1;" x1="1455.2847" x2="1455.2847" y1="873.2217" y2="897.624"/><polygon fill="#666666" points="1451.2847,887.624,1455.2847,897.624,1459.2847,887.624,1455.2847,891.624" style="stroke:#666666;stroke-width:1;"/><line style="stroke:#666666;stroke-width:1;" x1="1527.0569" x2="1545.2837" y1="861.2217" y2="861.2217"/><polygon fill="#666666" points="1541.2837,939.0928,1545.2837,949.0928,1549.2837,939.0928,1545.2837,943.0928" style="stroke:#666666;stroke-width:1;"/><line style="stroke:#666666;stroke-width:1;" x1="1545.2837" x2="1545.2837" y1="861.2217" y2="1032.5615"/><line style="stroke:#666666;stroke-width:1;" x1="1545.2837" x2="1467.2847" y1="1032.5615" y2="1032.5615"/><polygon fill="#666666" points="1477.2847,1028.5615,1467.2847,1032.5615,1477.2847,1036.5615,1473.2847,1032.5615" style="stroke:#666666;stroke-width:1;"/><line style="stroke:#666666;stroke-width:1;" x1="1455.2847" x2="1455.2847" y1="1000.5615" y2="1020.5615"/><polygon fill="#666666" points="1451.2847,1010.5615,1455.2847,1020.5615,1459.2847,1010.5615,1455.2847,1014.5615" style="stroke:#666666;stroke-width:1;"/><line style="stroke:#666666;stroke-width:1;" x1="1665.3237" x2="1665.3237" y1="1098.5303" y2="1118.5303"/><polygon fill="#666666" points="1661.3237,1108.5303,1665.3237,1118.5303,1669.3237,1108.5303,1665.3237,1112.5303" style="stroke:#666666;stroke-width:1;"/><line style="stroke:#666666;stroke-width:1;" x1="1050.9144" x2="1050.9144" y1="829.2217" y2="834.2217"/><line style="stroke:#666666;stroke-width:1;" x1="1050.9144" x2="1455.2847" y1="834.2217" y2="834.2217"/><line style="stroke:#666666;stroke-width:1;" x1="1455.2847" x2="1455.2847" y1="834.2217" y2="849.2217"/><polygon fill="#666666" points="1451.2847,839.2217,1455.2847,849.2217,1459.2847,839.2217,1455.2847,843.2217" style="stroke:#666666;stroke-width:1;"/><line style="stroke:#666666;stroke-width:1;" x1="1455.2847" x2="1455.2847" y1="1044.5615" y2="1049.5615"/><line style="stroke:#666666;stroke-width:1;" x1="1455.2847" x2="1665.3237" y1="1049.5615" y2="1049.5615"/><line style="stroke:#666666;stroke-width:1;" x1="1665.3237" x2="1665.3237" y1="1049.5615" y2="1064.5615"/><polygon fill="#666666" points="1661.3237,1054.5615,1665.3237,1064.5615,1669.3237,1054.5615,1665.3237,1058.5615" style="stroke:#666666;stroke-width:1;"/><line style="stroke:#666666;stroke-width:1;" x1="1317.4547" x2="1829.896" y1="476.5107" y2="476.5107"/><line style="stroke:#666666;stroke-width:1;" x1="1829.896" x2="1829.896" y1="476.5107" y2="508.5107"/><polygon fill="#666666" points="1825.896,498.5107,1829.896,508.5107,1833.896,498.5107,1829.896,502.5107" style="stroke:#666666;stroke-width:1;"/><line style="stroke:#666666;stroke-width:1;" x1="1665.3237" x2="1665.3237" y1="1152.499" y2="1156.499"/><line style="stroke:#666666;stroke-width:1;" x1="1665.3237" x2="1216.9796" y1="1156.499" y2="1156.499"/><line style="stroke:#666666;stroke-width:1;" x1="1216.9796" x2="1216.9796" y1="1156.499" y2="1174.499"/><line style="stroke:#666666;stroke-width:1;" x1="1216.9796" x2="1234.9796" y1="1174.499" y2="1174.499"/><polygon fill="#666666" points="1224.9796,1170.499,1234.9796,1174.499,1224.9796,1178.499,1228.9796,1174.499" style="stroke:#666666;stroke-width:1;"/><line style="stroke:#666666;stroke-width:1;" x1="1829.896" x2="1829.896" y1="542.4795" y2="1174.499"/><line style="stroke:#666666;stroke-width:1;" x1="1829.896" x2="1258.9796" y1="1174.499" y2="1174.499"/><polygon fill="#666666" points="1268.9796,1170.499,1258.9796,1174.499,1268.9796,1178.499,1264.9796,1174.499" style="stroke:#666666;stroke-width:1;"/><line style="stroke:#666666;stroke-width:1;" x1="516.7686" x2="516.7686" y1="444.5107" y2="449.5107"/><line style="stroke:#666666;stroke-width:1;" x1="516.7686" x2="1246.9796" y1="449.5107" y2="449.5107"/><line style="stroke:#666666;stroke-width:1;" x1="1246.9796" x2="1246.9796" y1="449.5107" y2="464.5107"/><polygon fill="#666666" points="1242.9796,454.5107,1246.9796,464.5107,1250.9796,454.5107,1246.9796,458.5107" style="stroke:#666666;stroke-width:1;"/><line style="stroke:#666666;stroke-width:1;" x1="747.0509" x2="1970.4009" y1="272.5732" y2="272.5732"/><line style="stroke:#666666;stroke-width:1;" x1="1970.4009" x2="1970.4009" y1="272.5732" y2="304.5732"/><polygon fill="#666666" points="1966.4009,294.5732,1970.4009,304.5732,1974.4009,294.5732,1970.4009,298.5732" style="stroke:#666666;stroke-width:1;"/><line style="stroke:#666666;stroke-width:1;" x1="1246.9796" x2="1246.9796" y1="1186.499" y2="1190.499"/><line style="stroke:#666666;stroke-width:1;" x1="1246.9796" x2="652.825" y1="1190.499" y2="1190.499"/><line style="stroke:#666666;stroke-width:1;" x1="652.825" x2="652.825" y1="1190.499" y2="1208.499"/><line style="stroke:#666666;stroke-width:1;" x1="652.825" x2="670.825" y1="1208.499" y2="1208.499"/><polygon fill="#666666" points="660.825,1204.499,670.825,1208.499,660.825,1212.499,664.825,1208.499" style="stroke:#666666;stroke-width:1;"/><line style="stroke:#666666;stroke-width:1;" x1="1970.4009" x2="1970.4009" y1="338.542" y2="1208.499"/><line style="stroke:#666666;stroke-width:1;" x1="1970.4009" x2="694.825" y1="1208.499" y2="1208.499"/><polygon fill="#666666" points="704.825,1204.499,694.825,1208.499,704.825,1212.499,700.825,1208.499" style="stroke:#666666;stroke-width:1;"/><line style="stroke:#666666;stroke-width:1;" x1="140.9717" x2="140.9717" y1="240.5732" y2="245.5732"/><line style="stroke:#666666;stroke-width:1;" x1="140.9717" x2="682.825" y1="245.5732" y2="245.5732"/><line style="stroke:#666666;stroke-width:1;" x1="682.825" x2="682.825" y1="245.5732" y2="260.5732"/><polygon fill="#666666" points="678.825,250.5732,682.825,260.5732,686.825,250.5732,682.825,254.5732" style="stroke:#666666;stroke-width:1;"/><line style="stroke:#666666;stroke-width:1;" x1="682.825" x2="682.825" y1="1220.499" y2="1225.499"/><line style="stroke:#666666;stroke-width:1;" x1="682.825" x2="140.9717" y1="1225.499" y2="1225.499"/><line style="stroke:#666666;stroke-width:1;" x1="140.9717" x2="140.9717" y1="1225.499" y2="1240.499"/><polygon fill="#666666" points="136.9717,1230.499,140.9717,1240.499,144.9717,1230.499,140.9717,1234.499" style="stroke:#666666;stroke-width:1;"/><text fill="#000000" font-family="Arial" font-size="18" lengthAdjust="spacing" textLength="170.5693" x="54.687" y="103.3906">Document Sources</text><text fill="#000000" font-family="Arial" font-size="18" lengthAdjust="spacing" textLength="168.5039" x="433.3779" y="103.3906">Monitoring Service</text><text fill="#000000" font-family="Arial" font-size="18" lengthAdjust="spacing" textLength="151.1191" x="993.8549" y="103.3906">Workflow Engine</text><text fill="#000000" font-family="Arial" font-size="18" lengthAdjust="spacing" textLength="175.5264" x="1378.6349" y="103.3906">Notification Service</text><text fill="#000000" font-family="Arial" font-size="18" lengthAdjust="spacing" textLength="70.4268" x="1769.6152" y="103.3906">Storage</text><!--SRC=[dLJ1Rjim3BtxAmZqqFOmxBGTaiEG9MqlQL3KsNfcRTeX8bEP93V8q8yVPSUEqAROC2U8Ol7fFV99r2NauM1OwinlMNRei85dBBQriwsKSskiW-1Gl8P8GeBQe9Hxno6GG8N6Kn9RK8Mj2RTMmWeRWfbZD4byvfpTz-GNNxid3HQ1NpWSlbjNalihwaso5zMN-CcoIrXpC9I5-0iBMxID5W1FrcqhO_SmQuDjCB2LYCttt1WKyjdh2CrjwmhohzdhlHKErgbDa9DxuO9qScIwaPebpgniu8gBZZG1vheKQ_sdEhUwu9o43-X2DXa3SqSOgFpyOrTsuu8CwJXD86kiwpXpFZskuEeu3sl72dLKVhk6iD7zkZgGlyu09lCD5TiX3kl3ZgOwNMbbEepnLD8F0C0QMNhOJpGSyuHRLgzJcXJLa_KbmzBsFaKWIJbewlUziG2ncaVwrR8Z3m_EgcTUotrRJvAwwjqj7XuXBx3JY4zacUkPr8oKXPotWWOM6F0zKSSm4ok7Xd_tEthKdPxYToJaOjqhseyk3N6jYgingSG8NVWqdzt1t3OxmoZgHcTDckRAogSX7Zx8JdS3zXmsy8HEr8r_4LwYrAqUHbZI2vdtkjyf6d-qkknH_oq_xcltza5x3Cf75W-3gUKvtKaUIMyQP0Cfto0-wHj6DzLldYswSfgTSkhJ6DknvzCtIewKrkxrwZhkyaWtTC0z1TGPx8wjNdfm9RRFRRAqsdvRtYa3-l5WgsoAcyJpnz8Id9fscXtJEtCldDfTMSl3L2yAk_i3]--></g></svg>