<svg xmlns="http://www.w3.org/2000/svg" xmlns:xlink="http://www.w3.org/1999/xlink" contentStyleType="text/css" data-diagram-type="ACTIVITY" height="1291px" preserveAspectRatio="none" style="width:2065px;height:1291px;" version="1.1" viewBox="0 0 2065 1291" width="2065px" zoomAndPan="magnify"><title>Document Workflow Automation</title><defs/><g><text fill="#000000" font-family="Arial" font-size="14" font-weight="bold" lengthAdjust="spacing" textLength="256.9355" x="902.6494" y="32.9951">Document Workflow Automation</text><rect fill="#FFFFFF" fill-opacity="0.00000" height="20.9531" style="stroke:#FFFFFF00;stroke-width:1;" width="2032.2344" x="15" y="50.042"/><ellipse cx="140.9717" cy="85.9951" fill="#222222" rx="10" ry="10" style="stroke:#222222;stroke-width:1;"/><rect fill="#F5F5F5" height="33.9688" rx="12.5" ry="12.5" style="stroke:#666666;stroke-width:0.5;" width="239.9434" x="21" y="115.9951"/><text fill="#000000" font-family="Arial" font-size="12" lengthAdjust="spacing" textLength="219.9434" x="31" y="137.1338">Document Created/Updated/Deleted</text><rect fill="#F5F5F5" height="33.9688" rx="12.5" ry="12.5" style="stroke:#666666;stroke-width:0.5;" width="130.9004" x="75.5215" y="169.9639"/><text fill="#000000" font-family="Arial" font-size="12" lengthAdjust="spacing" textLength="110.9004" x="85.5215" y="191.1025">Document Tagged</text><rect fill="#F5F5F5" height="33.9688" rx="12.5" ry="12.5" style="stroke:#666666;stroke-width:0.5;" width="123.7754" x="79.084" y="1203.8584"/><text fill="#000000" font-family="Arial" font-size="12" lengthAdjust="spacing" textLength="103.7754" x="89.084" y="1224.9971">Document Ready</text><ellipse cx="140.9717" cy="1268.8271" fill="#FFFFFF" fill-opacity="0.00000" rx="11" ry="11" style="stroke:#222222;stroke-width:1;"/><ellipse cx="140.9717" cy="1268.8271" fill="#222222" rx="6" ry="6" style="stroke:#222222;stroke-width:1;"/><line style="stroke:#000000;stroke-width:1.5;" x1="15" x2="15" y1="50.042" y2="1279.8271"/><polygon fill="#F5F5F5" points="630.5992,223.9326,735.0509,223.9326,747.0509,235.9326,735.0509,247.9326,630.5992,247.9326,618.5992,235.9326,630.5992,223.9326" style="stroke:#666666;stroke-width:0.5;"/><text fill="#000000" font-family="Arial" font-size="11" lengthAdjust="spacing" textLength="104.4517" x="630.5992" y="239.7407">Monitor Triggered?</text><text fill="#000000" font-family="Arial" font-size="11" lengthAdjust="spacing" textLength="19.0083" x="599.5909" y="233.3384">yes</text><text fill="#000000" font-family="Arial" font-size="11" lengthAdjust="spacing" textLength="13.7017" x="747.0509" y="233.3384">no</text><rect fill="#F5F5F5" height="33.9688" rx="12.5" ry="12.5" style="stroke:#666666;stroke-width:0.5;" width="137.123" x="448.207" y="267.9326"/><text fill="#000000" font-family="Arial" font-size="12" lengthAdjust="spacing" textLength="117.123" x="458.207" y="289.0713">Check Trigger Type</text><rect fill="#555555" height="6" rx="2.5" ry="2.5" style="stroke:#555555;stroke-width:1;" width="495.373" x="270.9434" y="321.9014"/><rect fill="#F5F5F5" height="33.9688" rx="12.5" ry="12.5" style="stroke:#666666;stroke-width:0.5;" width="155.2637" x="282.9434" y="347.9014"/><text fill="#000000" font-family="Arial" font-size="12" lengthAdjust="spacing" textLength="135.2637" x="292.9434" y="369.04">Check Document Tags</text><rect fill="#F5F5F5" height="33.9688" rx="12.5" ry="12.5" style="stroke:#666666;stroke-width:0.5;" width="127.3027" x="452.2559" y="347.9014"/><text fill="#000000" font-family="Arial" font-size="12" lengthAdjust="spacing" textLength="107.3027" x="462.2559" y="369.04">Validate File Type</text><rect fill="#F5F5F5" height="33.9688" rx="12.5" ry="12.5" style="stroke:#666666;stroke-width:0.5;" width="156.9863" x="595.3301" y="347.9014"/><text fill="#000000" font-family="Arial" font-size="12" lengthAdjust="spacing" textLength="136.9863" x="605.3301" y="369.04">Check Source Location</text><rect fill="#555555" height="6" rx="2.5" ry="2.5" style="stroke:#555555;stroke-width:1;" width="495.373" x="270.9434" y="401.8701"/><polygon fill="#F5F5F5" points="682.825,1159.8584,694.825,1171.8584,682.825,1183.8584,670.825,1171.8584,682.825,1159.8584" style="stroke:#666666;stroke-width:0.5;"/><line style="stroke:#000000;stroke-width:1.5;" x1="264.9434" x2="264.9434" y1="50.042" y2="1279.8271"/><polygon fill="#F5F5F5" points="1188.5045,427.8701,1305.4547,427.8701,1317.4547,439.8701,1305.4547,451.8701,1188.5045,451.8701,1176.5045,439.8701,1188.5045,427.8701" style="stroke:#666666;stroke-width:0.5;"/><text fill="#000000" font-family="Arial" font-size="11" lengthAdjust="spacing" textLength="116.9502" x="1188.5045" y="443.6782">Requires Processing?</text><text fill="#000000" font-family="Arial" font-size="11" lengthAdjust="spacing" textLength="19.0083" x="1157.4962" y="437.2759">yes</text><text fill="#000000" font-family="Arial" font-size="11" lengthAdjust="spacing" textLength="13.7017" x="1317.4547" y="437.2759">no</text><rect fill="#555555" height="6" rx="2.5" ry="2.5" style="stroke:#555555;stroke-width:1;" width="587.196" x="776.3164" y="471.8701"/><rect fill="#F5F5F5" height="33.9688" rx="12.5" ry="12.5" style="stroke:#666666;stroke-width:0.5;" width="87.1016" x="830.7734" y="497.8701"/><text fill="#000000" font-family="Arial" font-size="12" lengthAdjust="spacing" textLength="67.1016" x="840.7734" y="519.0088">GDPR Scan</text><rect fill="#F5F5F5" height="33.9688" rx="12.5" ry="12.5" style="stroke:#666666;stroke-width:0.5;" width="159.3359" x="794.6563" y="615.2412"/><text fill="#000000" font-family="Arial" font-size="12" lengthAdjust="spacing" textLength="139.3359" x="804.6563" y="636.3799">Anonymization Process</text><rect fill="#F5F5F5" height="33.9688" rx="12.5" ry="12.5" style="stroke:#666666;stroke-width:0.5;" width="172.0156" x="788.3164" y="684.21"/><text fill="#000000" font-family="Arial" font-size="12" lengthAdjust="spacing" textLength="152.0156" x="798.3164" y="705.3486">Generate New Document</text><polygon fill="#F5F5F5" points="807.1023,566.8389,941.5461,566.8389,953.5461,578.8389,941.5461,590.8389,807.1023,590.8389,795.1023,578.8389,807.1023,566.8389" style="stroke:#666666;stroke-width:0.5;"/><text fill="#000000" font-family="Arial" font-size="11" lengthAdjust="spacing" textLength="19.0083" x="878.3242" y="601.0493">yes</text><text fill="#000000" font-family="Arial" font-size="11" lengthAdjust="spacing" textLength="134.4438" x="807.1023" y="582.647">Contains Personal Data?</text><polygon fill="#F5F5F5" points="874.3242,742.5811,886.3242,754.5811,874.3242,766.5811,862.3242,754.5811,874.3242,742.5811" style="stroke:#666666;stroke-width:0.5;"/><rect fill="#F5F5F5" height="33.9688" rx="12.5" ry="12.5" style="stroke:#666666;stroke-width:0.5;" width="172.9297" x="984.332" y="532.3545"/><text fill="#000000" font-family="Arial" font-size="12" lengthAdjust="spacing" textLength="152.9297" x="994.332" y="553.4932">WCAG Compliance Check</text><rect fill="#F5F5F5" height="33.9688" rx="12.5" ry="12.5" style="stroke:#666666;stroke-width:0.5;" width="125.7031" x="1007.9453" y="649.7256"/><text fill="#000000" font-family="Arial" font-size="12" lengthAdjust="spacing" textLength="105.7031" x="1017.9453" y="670.8643">Tag with Warning</text><polygon fill="#F5F5F5" points="1026.8049,601.3232,1114.7888,601.3232,1126.7888,613.3232,1114.7888,625.3232,1026.8049,625.3232,1014.8049,613.3232,1026.8049,601.3232" style="stroke:#666666;stroke-width:0.5;"/><text fill="#000000" font-family="Arial" font-size="11" lengthAdjust="spacing" textLength="19.0083" x="1074.7969" y="635.5337">yes</text><text fill="#000000" font-family="Arial" font-size="11" lengthAdjust="spacing" textLength="87.9839" x="1026.8049" y="617.1313">Non-Compliant?</text><polygon fill="#F5F5F5" points="1070.7969,708.0967,1082.7969,720.0967,1070.7969,732.0967,1058.7969,720.0967,1070.7969,708.0967" style="stroke:#666666;stroke-width:0.5;"/><rect fill="#F5F5F5" height="33.9688" rx="12.5" ry="12.5" style="stroke:#666666;stroke-width:0.5;" width="155.6504" x="1185.2617" y="532.3545"/><text fill="#000000" font-family="Arial" font-size="12" lengthAdjust="spacing" textLength="135.6504" x="1195.2617" y="553.4932">Language Level Check</text><rect fill="#F5F5F5" height="33.9688" rx="12.5" ry="12.5" style="stroke:#666666;stroke-width:0.5;" width="125.7031" x="1200.2354" y="649.7256"/><text fill="#000000" font-family="Arial" font-size="12" lengthAdjust="spacing" textLength="105.7031" x="1210.2354" y="670.8643">Tag with Warning</text><polygon fill="#F5F5F5" points="1200.6614,601.3232,1325.5125,601.3232,1337.5125,613.3232,1325.5125,625.3232,1200.6614,625.3232,1188.6614,613.3232,1200.6614,601.3232" style="stroke:#666666;stroke-width:0.5;"/><text fill="#000000" font-family="Arial" font-size="11" lengthAdjust="spacing" textLength="19.0083" x="1267.0869" y="635.5337">yes</text><text fill="#000000" font-family="Arial" font-size="11" lengthAdjust="spacing" textLength="124.8511" x="1200.6614" y="617.1313">Below Required Level?</text><polygon fill="#F5F5F5" points="1263.0869,708.0967,1275.0869,720.0967,1263.0869,732.0967,1251.0869,720.0967,1263.0869,708.0967" style="stroke:#666666;stroke-width:0.5;"/><rect fill="#555555" height="6" rx="2.5" ry="2.5" style="stroke:#555555;stroke-width:1;" width="587.196" x="776.3164" y="786.5811"/><polygon fill="#F5F5F5" points="1246.9796,1125.8584,1258.9796,1137.8584,1246.9796,1149.8584,1234.9796,1137.8584,1246.9796,1125.8584" style="stroke:#666666;stroke-width:0.5;"/><line style="stroke:#000000;stroke-width:1.5;" x1="770.3164" x2="770.3164" y1="50.042" y2="1279.8271"/><rect fill="#F5F5F5" height="33.9688" rx="12.5" ry="12.5" style="stroke:#666666;stroke-width:0.5;" width="159.998" x="1375.2856" y="860.9834"/><text fill="#000000" font-family="Arial" font-size="12" lengthAdjust="spacing" textLength="139.998" x="1385.2856" y="882.1221">Send Email Notification</text><rect fill="#F5F5F5" height="33.9688" rx="12.5" ry="12.5" style="stroke:#666666;stroke-width:0.5;" width="132.5879" x="1388.9907" y="929.9521"/><text fill="#000000" font-family="Arial" font-size="12" lengthAdjust="spacing" textLength="112.5879" x="1398.9907" y="951.0908">Update Dashboard</text><polygon fill="#F5F5F5" points="1395.5125,812.5811,1515.0569,812.5811,1527.0569,824.5811,1515.0569,836.5811,1395.5125,836.5811,1383.5125,824.5811,1395.5125,812.5811" style="stroke:#666666;stroke-width:0.5;"/><text fill="#000000" font-family="Arial" font-size="11" lengthAdjust="spacing" textLength="19.0083" x="1459.2847" y="846.7915">yes</text><text fill="#000000" font-family="Arial" font-size="11" lengthAdjust="spacing" textLength="119.5444" x="1395.5125" y="828.3892">Warnings Generated?</text><polygon fill="#F5F5F5" points="1455.2847,983.9209,1467.2847,995.9209,1455.2847,1007.9209,1443.2847,995.9209,1455.2847,983.9209" style="stroke:#666666;stroke-width:0.5;"/><line style="stroke:#000000;stroke-width:1.5;" x1="1368.5125" x2="1368.5125" y1="50.042" y2="1279.8271"/><rect fill="#F5F5F5" height="33.9688" rx="12.5" ry="12.5" style="stroke:#666666;stroke-width:0.5;" width="168.0313" x="1581.3081" y="1027.9209"/><text fill="#000000" font-family="Arial" font-size="12" lengthAdjust="spacing" textLength="148.0313" x="1591.3081" y="1049.0596">Store Processing Results</text><rect fill="#F5F5F5" height="33.9688" rx="12.5" ry="12.5" style="stroke:#666666;stroke-width:0.5;" width="190.0801" x="1570.2837" y="1081.8896"/><text fill="#000000" font-family="Arial" font-size="12" lengthAdjust="spacing" textLength="170.0801" x="1580.2837" y="1103.0283">Update Document Metadata</text><rect fill="#F5F5F5" height="33.9688" rx="12.5" ry="12.5" style="stroke:#666666;stroke-width:0.5;" width="119.0645" x="1770.3638" y="471.8701"/><text fill="#000000" font-family="Arial" font-size="12" lengthAdjust="spacing" textLength="99.0645" x="1780.3638" y="493.0088">Log Skip Reason</text><rect fill="#F5F5F5" height="33.9688" rx="12.5" ry="12.5" style="stroke:#666666;stroke-width:0.5;" width="141.9453" x="1899.4282" y="267.9326"/><text fill="#000000" font-family="Arial" font-size="12" lengthAdjust="spacing" textLength="121.9453" x="1909.4282" y="289.0713">Continue Monitoring</text><line style="stroke:#000000;stroke-width:1.5;" x1="1564.2837" x2="1564.2837" y1="50.042" y2="1279.8271"/><line style="stroke:#000000;stroke-width:1.5;" x1="2045.3735" x2="2045.3735" y1="50.042" y2="1279.8271"/><line style="stroke:#666666;stroke-width:1;" x1="140.9717" x2="140.9717" y1="95.9951" y2="115.9951"/><polygon fill="#666666" points="136.9717,105.9951,140.9717,115.9951,144.9717,105.9951,140.9717,109.9951" style="stroke:#666666;stroke-width:1;"/><line style="stroke:#666666;stroke-width:1;" x1="140.9717" x2="140.9717" y1="149.9639" y2="169.9639"/><polygon fill="#666666" points="136.9717,159.9639,140.9717,169.9639,144.9717,159.9639,140.9717,163.9639" style="stroke:#666666;stroke-width:1;"/><line style="stroke:#666666;stroke-width:1;" x1="140.9717" x2="140.9717" y1="1237.8271" y2="1257.8271"/><polygon fill="#666666" points="136.9717,1247.8271,140.9717,1257.8271,144.9717,1247.8271,140.9717,1251.8271" style="stroke:#666666;stroke-width:1;"/><line style="stroke:#666666;stroke-width:1;" x1="360.5752" x2="360.5752" y1="327.9014" y2="347.9014"/><polygon fill="#666666" points="356.5752,337.9014,360.5752,347.9014,364.5752,337.9014,360.5752,341.9014" style="stroke:#666666;stroke-width:1;"/><line style="stroke:#666666;stroke-width:1;" x1="515.9072" x2="515.9072" y1="327.9014" y2="347.9014"/><polygon fill="#666666" points="511.9072,337.9014,515.9072,347.9014,519.9072,337.9014,515.9072,341.9014" style="stroke:#666666;stroke-width:1;"/><line style="stroke:#666666;stroke-width:1;" x1="673.8232" x2="673.8232" y1="327.9014" y2="347.9014"/><polygon fill="#666666" points="669.8232,337.9014,673.8232,347.9014,677.8232,337.9014,673.8232,341.9014" style="stroke:#666666;stroke-width:1;"/><line style="stroke:#666666;stroke-width:1;" x1="360.5752" x2="360.5752" y1="381.8701" y2="401.8701"/><polygon fill="#666666" points="356.5752,391.8701,360.5752,401.8701,364.5752,391.8701,360.5752,395.8701" style="stroke:#666666;stroke-width:1;"/><line style="stroke:#666666;stroke-width:1;" x1="515.9072" x2="515.9072" y1="381.8701" y2="401.8701"/><polygon fill="#666666" points="511.9072,391.8701,515.9072,401.8701,519.9072,391.8701,515.9072,395.8701" style="stroke:#666666;stroke-width:1;"/><line style="stroke:#666666;stroke-width:1;" x1="673.8232" x2="673.8232" y1="381.8701" y2="401.8701"/><polygon fill="#666666" points="669.8232,391.8701,673.8232,401.8701,677.8232,391.8701,673.8232,395.8701" style="stroke:#666666;stroke-width:1;"/><line style="stroke:#666666;stroke-width:1;" x1="516.7686" x2="516.7686" y1="301.9014" y2="321.9014"/><polygon fill="#666666" points="512.7686,311.9014,516.7686,321.9014,520.7686,311.9014,516.7686,315.9014" style="stroke:#666666;stroke-width:1;"/><line style="stroke:#666666;stroke-width:1;" x1="618.5992" x2="516.7686" y1="235.9326" y2="235.9326"/><line style="stroke:#666666;stroke-width:1;" x1="516.7686" x2="516.7686" y1="235.9326" y2="267.9326"/><polygon fill="#666666" points="512.7686,257.9326,516.7686,267.9326,520.7686,257.9326,516.7686,261.9326" style="stroke:#666666;stroke-width:1;"/><line style="stroke:#666666;stroke-width:1;" x1="874.3242" x2="874.3242" y1="649.21" y2="684.21"/><polygon fill="#666666" points="870.3242,674.21,874.3242,684.21,878.3242,674.21,874.3242,678.21" style="stroke:#666666;stroke-width:1;"/><line style="stroke:#666666;stroke-width:1;" x1="874.3242" x2="874.3242" y1="590.8389" y2="615.2412"/><polygon fill="#666666" points="870.3242,605.2412,874.3242,615.2412,878.3242,605.2412,874.3242,609.2412" style="stroke:#666666;stroke-width:1;"/><line style="stroke:#666666;stroke-width:1;" x1="953.5461" x2="970.332" y1="578.8389" y2="578.8389"/><polygon fill="#666666" points="966.332,656.71,970.332,666.71,974.332,656.71,970.332,660.71" style="stroke:#666666;stroke-width:1;"/><line style="stroke:#666666;stroke-width:1;" x1="970.332" x2="970.332" y1="578.8389" y2="754.5811"/><line style="stroke:#666666;stroke-width:1;" x1="970.332" x2="886.3242" y1="754.5811" y2="754.5811"/><polygon fill="#666666" points="896.3242,750.5811,886.3242,754.5811,896.3242,758.5811,892.3242,754.5811" style="stroke:#666666;stroke-width:1;"/><line style="stroke:#666666;stroke-width:1;" x1="874.3242" x2="874.3242" y1="718.1787" y2="742.5811"/><polygon fill="#666666" points="870.3242,732.5811,874.3242,742.5811,878.3242,732.5811,874.3242,736.5811" style="stroke:#666666;stroke-width:1;"/><line style="stroke:#666666;stroke-width:1;" x1="874.3242" x2="874.3242" y1="531.8389" y2="566.8389"/><polygon fill="#666666" points="870.3242,556.8389,874.3242,566.8389,878.3242,556.8389,874.3242,560.8389" style="stroke:#666666;stroke-width:1;"/><line style="stroke:#666666;stroke-width:1;" x1="1070.7969" x2="1070.7969" y1="625.3232" y2="649.7256"/><polygon fill="#666666" points="1066.7969,639.7256,1070.7969,649.7256,1074.7969,639.7256,1070.7969,643.7256" style="stroke:#666666;stroke-width:1;"/><line style="stroke:#666666;stroke-width:1;" x1="1126.7888" x2="1143.6484" y1="613.3232" y2="613.3232"/><polygon fill="#666666" points="1139.6484,656.71,1143.6484,666.71,1147.6484,656.71,1143.6484,660.71" style="stroke:#666666;stroke-width:1;"/><line style="stroke:#666666;stroke-width:1;" x1="1143.6484" x2="1143.6484" y1="613.3232" y2="720.0967"/><line style="stroke:#666666;stroke-width:1;" x1="1143.6484" x2="1082.7969" y1="720.0967" y2="720.0967"/><polygon fill="#666666" points="1092.7969,716.0967,1082.7969,720.0967,1092.7969,724.0967,1088.7969,720.0967" style="stroke:#666666;stroke-width:1;"/><line style="stroke:#666666;stroke-width:1;" x1="1070.7969" x2="1070.7969" y1="683.6943" y2="708.0967"/><polygon fill="#666666" points="1066.7969,698.0967,1070.7969,708.0967,1074.7969,698.0967,1070.7969,702.0967" style="stroke:#666666;stroke-width:1;"/><line style="stroke:#666666;stroke-width:1;" x1="1070.7969" x2="1070.7969" y1="566.3232" y2="601.3232"/><polygon fill="#666666" points="1066.7969,591.3232,1070.7969,601.3232,1074.7969,591.3232,1070.7969,595.3232" style="stroke:#666666;stroke-width:1;"/><line style="stroke:#666666;stroke-width:1;" x1="1263.0869" x2="1263.0869" y1="625.3232" y2="649.7256"/><polygon fill="#666666" points="1259.0869,639.7256,1263.0869,649.7256,1267.0869,639.7256,1263.0869,643.7256" style="stroke:#666666;stroke-width:1;"/><line style="stroke:#666666;stroke-width:1;" x1="1337.5125" x2="1349.5125" y1="613.3232" y2="613.3232"/><polygon fill="#666666" points="1345.5125,656.71,1349.5125,666.71,1353.5125,656.71,1349.5125,660.71" style="stroke:#666666;stroke-width:1;"/><line style="stroke:#666666;stroke-width:1;" x1="1349.5125" x2="1349.5125" y1="613.3232" y2="720.0967"/><line style="stroke:#666666;stroke-width:1;" x1="1349.5125" x2="1275.0869" y1="720.0967" y2="720.0967"/><polygon fill="#666666" points="1285.0869,716.0967,1275.0869,720.0967,1285.0869,724.0967,1281.0869,720.0967" style="stroke:#666666;stroke-width:1;"/><line style="stroke:#666666;stroke-width:1;" x1="1263.0869" x2="1263.0869" y1="683.6943" y2="708.0967"/><polygon fill="#666666" points="1259.0869,698.0967,1263.0869,708.0967,1267.0869,698.0967,1263.0869,702.0967" style="stroke:#666666;stroke-width:1;"/><line style="stroke:#666666;stroke-width:1;" x1="1263.0869" x2="1263.0869" y1="566.3232" y2="601.3232"/><polygon fill="#666666" points="1259.0869,591.3232,1263.0869,601.3232,1267.0869,591.3232,1263.0869,595.3232" style="stroke:#666666;stroke-width:1;"/><line style="stroke:#666666;stroke-width:1;" x1="874.3242" x2="874.3242" y1="477.8701" y2="497.8701"/><polygon fill="#666666" points="870.3242,487.8701,874.3242,497.8701,878.3242,487.8701,874.3242,491.8701" style="stroke:#666666;stroke-width:1;"/><line style="stroke:#666666;stroke-width:1;" x1="1070.7969" x2="1070.7969" y1="477.8701" y2="532.3545"/><polygon fill="#666666" points="1066.7969,522.3545,1070.7969,532.3545,1074.7969,522.3545,1070.7969,526.3545" style="stroke:#666666;stroke-width:1;"/><line style="stroke:#666666;stroke-width:1;" x1="1263.0869" x2="1263.0869" y1="477.8701" y2="532.3545"/><polygon fill="#666666" points="1259.0869,522.3545,1263.0869,532.3545,1267.0869,522.3545,1263.0869,526.3545" style="stroke:#666666;stroke-width:1;"/><line style="stroke:#666666;stroke-width:1;" x1="874.3242" x2="874.3242" y1="766.5811" y2="786.5811"/><polygon fill="#666666" points="870.3242,776.5811,874.3242,786.5811,878.3242,776.5811,874.3242,780.5811" style="stroke:#666666;stroke-width:1;"/><line style="stroke:#666666;stroke-width:1;" x1="1070.7969" x2="1070.7969" y1="732.0967" y2="786.5811"/><polygon fill="#666666" points="1066.7969,776.5811,1070.7969,786.5811,1074.7969,776.5811,1070.7969,780.5811" style="stroke:#666666;stroke-width:1;"/><line style="stroke:#666666;stroke-width:1;" x1="1263.0869" x2="1263.0869" y1="732.0967" y2="786.5811"/><polygon fill="#666666" points="1259.0869,776.5811,1263.0869,786.5811,1267.0869,776.5811,1263.0869,780.5811" style="stroke:#666666;stroke-width:1;"/><line style="stroke:#666666;stroke-width:1;" x1="1176.5045" x2="1050.9144" y1="439.8701" y2="439.8701"/><line style="stroke:#666666;stroke-width:1;" x1="1050.9144" x2="1050.9144" y1="439.8701" y2="471.8701"/><polygon fill="#666666" points="1046.9144,461.8701,1050.9144,471.8701,1054.9144,461.8701,1050.9144,465.8701" style="stroke:#666666;stroke-width:1;"/><line style="stroke:#666666;stroke-width:1;" x1="1455.2847" x2="1455.2847" y1="894.9521" y2="929.9521"/><polygon fill="#666666" points="1451.2847,919.9521,1455.2847,929.9521,1459.2847,919.9521,1455.2847,923.9521" style="stroke:#666666;stroke-width:1;"/><line style="stroke:#666666;stroke-width:1;" x1="1455.2847" x2="1455.2847" y1="836.5811" y2="860.9834"/><polygon fill="#666666" points="1451.2847,850.9834,1455.2847,860.9834,1459.2847,850.9834,1455.2847,854.9834" style="stroke:#666666;stroke-width:1;"/><line style="stroke:#666666;stroke-width:1;" x1="1527.0569" x2="1545.2837" y1="824.5811" y2="824.5811"/><polygon fill="#666666" points="1541.2837,902.4521,1545.2837,912.4521,1549.2837,902.4521,1545.2837,906.4521" style="stroke:#666666;stroke-width:1;"/><line style="stroke:#666666;stroke-width:1;" x1="1545.2837" x2="1545.2837" y1="824.5811" y2="995.9209"/><line style="stroke:#666666;stroke-width:1;" x1="1545.2837" x2="1467.2847" y1="995.9209" y2="995.9209"/><polygon fill="#666666" points="1477.2847,991.9209,1467.2847,995.9209,1477.2847,999.9209,1473.2847,995.9209" style="stroke:#666666;stroke-width:1;"/><line style="stroke:#666666;stroke-width:1;" x1="1455.2847" x2="1455.2847" y1="963.9209" y2="983.9209"/><polygon fill="#666666" points="1451.2847,973.9209,1455.2847,983.9209,1459.2847,973.9209,1455.2847,977.9209" style="stroke:#666666;stroke-width:1;"/><line style="stroke:#666666;stroke-width:1;" x1="1665.3237" x2="1665.3237" y1="1061.8896" y2="1081.8896"/><polygon fill="#666666" points="1661.3237,1071.8896,1665.3237,1081.8896,1669.3237,1071.8896,1665.3237,1075.8896" style="stroke:#666666;stroke-width:1;"/><line style="stroke:#666666;stroke-width:1;" x1="1050.9144" x2="1050.9144" y1="792.5811" y2="797.5811"/><line style="stroke:#666666;stroke-width:1;" x1="1050.9144" x2="1455.2847" y1="797.5811" y2="797.5811"/><line style="stroke:#666666;stroke-width:1;" x1="1455.2847" x2="1455.2847" y1="797.5811" y2="812.5811"/><polygon fill="#666666" points="1451.2847,802.5811,1455.2847,812.5811,1459.2847,802.5811,1455.2847,806.5811" style="stroke:#666666;stroke-width:1;"/><line style="stroke:#666666;stroke-width:1;" x1="1455.2847" x2="1455.2847" y1="1007.9209" y2="1012.9209"/><line style="stroke:#666666;stroke-width:1;" x1="1455.2847" x2="1665.3237" y1="1012.9209" y2="1012.9209"/><line style="stroke:#666666;stroke-width:1;" x1="1665.3237" x2="1665.3237" y1="1012.9209" y2="1027.9209"/><polygon fill="#666666" points="1661.3237,1017.9209,1665.3237,1027.9209,1669.3237,1017.9209,1665.3237,1021.9209" style="stroke:#666666;stroke-width:1;"/><line style="stroke:#666666;stroke-width:1;" x1="1317.4547" x2="1829.896" y1="439.8701" y2="439.8701"/><line style="stroke:#666666;stroke-width:1;" x1="1829.896" x2="1829.896" y1="439.8701" y2="471.8701"/><polygon fill="#666666" points="1825.896,461.8701,1829.896,471.8701,1833.896,461.8701,1829.896,465.8701" style="stroke:#666666;stroke-width:1;"/><line style="stroke:#666666;stroke-width:1;" x1="1665.3237" x2="1665.3237" y1="1115.8584" y2="1119.8584"/><line style="stroke:#666666;stroke-width:1;" x1="1665.3237" x2="1216.9796" y1="1119.8584" y2="1119.8584"/><line style="stroke:#666666;stroke-width:1;" x1="1216.9796" x2="1216.9796" y1="1119.8584" y2="1137.8584"/><line style="stroke:#666666;stroke-width:1;" x1="1216.9796" x2="1234.9796" y1="1137.8584" y2="1137.8584"/><polygon fill="#666666" points="1224.9796,1133.8584,1234.9796,1137.8584,1224.9796,1141.8584,1228.9796,1137.8584" style="stroke:#666666;stroke-width:1;"/><line style="stroke:#666666;stroke-width:1;" x1="1829.896" x2="1829.896" y1="505.8389" y2="1137.8584"/><line style="stroke:#666666;stroke-width:1;" x1="1829.896" x2="1258.9796" y1="1137.8584" y2="1137.8584"/><polygon fill="#666666" points="1268.9796,1133.8584,1258.9796,1137.8584,1268.9796,1141.8584,1264.9796,1137.8584" style="stroke:#666666;stroke-width:1;"/><line style="stroke:#666666;stroke-width:1;" x1="516.7686" x2="516.7686" y1="407.8701" y2="412.8701"/><line style="stroke:#666666;stroke-width:1;" x1="516.7686" x2="1246.9796" y1="412.8701" y2="412.8701"/><line style="stroke:#666666;stroke-width:1;" x1="1246.9796" x2="1246.9796" y1="412.8701" y2="427.8701"/><polygon fill="#666666" points="1242.9796,417.8701,1246.9796,427.8701,1250.9796,417.8701,1246.9796,421.8701" style="stroke:#666666;stroke-width:1;"/><line style="stroke:#666666;stroke-width:1;" x1="747.0509" x2="1970.4009" y1="235.9326" y2="235.9326"/><line style="stroke:#666666;stroke-width:1;" x1="1970.4009" x2="1970.4009" y1="235.9326" y2="267.9326"/><polygon fill="#666666" points="1966.4009,257.9326,1970.4009,267.9326,1974.4009,257.9326,1970.4009,261.9326" style="stroke:#666666;stroke-width:1;"/><line style="stroke:#666666;stroke-width:1;" x1="1246.9796" x2="1246.9796" y1="1149.8584" y2="1153.8584"/><line style="stroke:#666666;stroke-width:1;" x1="1246.9796" x2="652.825" y1="1153.8584" y2="1153.8584"/><line style="stroke:#666666;stroke-width:1;" x1="652.825" x2="652.825" y1="1153.8584" y2="1171.8584"/><line style="stroke:#666666;stroke-width:1;" x1="652.825" x2="670.825" y1="1171.8584" y2="1171.8584"/><polygon fill="#666666" points="660.825,1167.8584,670.825,1171.8584,660.825,1175.8584,664.825,1171.8584" style="stroke:#666666;stroke-width:1;"/><line style="stroke:#666666;stroke-width:1;" x1="1970.4009" x2="1970.4009" y1="301.9014" y2="1171.8584"/><line style="stroke:#666666;stroke-width:1;" x1="1970.4009" x2="694.825" y1="1171.8584" y2="1171.8584"/><polygon fill="#666666" points="704.825,1167.8584,694.825,1171.8584,704.825,1175.8584,700.825,1171.8584" style="stroke:#666666;stroke-width:1;"/><line style="stroke:#666666;stroke-width:1;" x1="140.9717" x2="140.9717" y1="203.9326" y2="208.9326"/><line style="stroke:#666666;stroke-width:1;" x1="140.9717" x2="682.825" y1="208.9326" y2="208.9326"/><line style="stroke:#666666;stroke-width:1;" x1="682.825" x2="682.825" y1="208.9326" y2="223.9326"/><polygon fill="#666666" points="678.825,213.9326,682.825,223.9326,686.825,213.9326,682.825,217.9326" style="stroke:#666666;stroke-width:1;"/><line style="stroke:#666666;stroke-width:1;" x1="682.825" x2="682.825" y1="1183.8584" y2="1188.8584"/><line style="stroke:#666666;stroke-width:1;" x1="682.825" x2="140.9717" y1="1188.8584" y2="1188.8584"/><line style="stroke:#666666;stroke-width:1;" x1="140.9717" x2="140.9717" y1="1188.8584" y2="1203.8584"/><polygon fill="#666666" points="136.9717,1193.8584,140.9717,1203.8584,144.9717,1193.8584,140.9717,1197.8584" style="stroke:#666666;stroke-width:1;"/><text fill="#000000" font-family="Arial" font-size="18" lengthAdjust="spacing" textLength="170.5693" x="54.687" y="66.75">Document Sources</text><text fill="#000000" font-family="Arial" font-size="18" lengthAdjust="spacing" textLength="168.5039" x="433.3779" y="66.75">Monitoring Service</text><text fill="#000000" font-family="Arial" font-size="18" lengthAdjust="spacing" textLength="151.1191" x="993.8549" y="66.75">Workflow Engine</text><text fill="#000000" font-family="Arial" font-size="18" lengthAdjust="spacing" textLength="175.5264" x="1378.6349" y="66.75">Notification Service</text><text fill="#000000" font-family="Arial" font-size="18" lengthAdjust="spacing" textLength="70.4268" x="1769.6152" y="66.75">Storage</text><!--SRC=[dLJ1Rjim3BtxAmZqqFOmxBGTaiEG9MqlQL3KsNfcRTeX8ekP93V8q8yVPSUEqAROC2U8Of5wx_59r2NauM3OrfdVijsXmmQUiTZMJbfRpiM8W-3GUWsH3KdMWYfiJRWL6rRO4CmSeqdYC-TatmDSVEsUD5W4Vk5m-2wk9FVNh3U2BgelyPDbbx3cO2WByHSMKhIDYeGdSTlAo1vcRP060ukDkVcU6uEMVFOwfkRIkeByQ_PwBvQ3EBK2Sd8lN91EZaWtjcORPrOIkEAY0qqISrsAjVvJdbjTS8x21tGXcuo1kICCL7x-iIkxSK66T9mcAMkiwpXpNXvNS7MSXxLZJNLKVhk6i24BLmVornd0PBwXOZl4ONtOqLIdAwrCXp6UKleX0R16jdtQJpGSTS8jgzSfJ9hLW_Kbmr9wds8YsNBWrEzxOm5YDO_qgsL77XwSg6TUotrRJo9T-UuM3u-G5zXnn2UYpFLCgY958UV5ee451dmFr27ChDX3mx_x7JtoJa_nExBaOjqhseyk3N6jYgjHL6A4BdoQp-vWBitEC5frexCcbRaI-sc8Xm_KwMx0diC6dj1PTUDVY9TewrOF8opfXSnxtkyKZJzQNVPP_qq_xcltza5x3Cn750-3gUKvtaaUGMyQP0Cfta0-wHj6DzLldWLTESrEcdePOplsUFf6oP7IshrUNSTT7k663hYdW3g3tR4rdk3AIgzjiXHjlotl507zUB2LDisRnFF7jYKuDUqqEyexSo-SsbrHoyDKBmhP_G40]--></g></svg>